<svg width="116" height="144" viewBox="0 0 116 144" fill="none" xmlns="http://www.w3.org/2000/svg">
<path fill-rule="evenodd" clip-rule="evenodd" d="M1.90006 82.5654C1.90006 82.5654 0.559215 79.1678 0.886736 78.2395C1.21426 77.3113 1.42054 75.316 2.26377 74.002C3.107 72.688 4.97261 72.8376 5.10832 71.5164C5.24404 70.1953 4.82061 67.7512 5.00156 65.9632C5.18251 64.1733 6.12165 62.5097 7.63621 60.7577C9.15077 59.0058 10.4301 57.6882 10.3089 56.3994C10.1894 55.1125 9.02772 54.3447 8.23515 51.048C7.44078 47.7514 8.17363 46.2427 9.42581 44.6566C10.678 43.0704 12.3138 42.2449 12.7825 38.0705C13.2511 33.896 14.022 30.0983 15.2868 27.7389C16.5499 25.3795 19.5609 23.3104 20.4982 23.3716C21.4355 23.4329 22.6714 23.7249 23.122 22.2415C23.5726 20.7563 26.7048 17.7174 30.512 17.1082C34.3192 16.499 39.0674 19.9578 39.0674 19.9578C39.0674 19.9578 39.9161 18.9358 40.8425 18.8439C41.7672 18.7502 57.7741 38.613 55.9736 49.4258C54.1732 60.2368 49.8141 71.3975 45.3971 73.9533C40.9782 76.5092 29.8986 93.1294 28.3189 99.4217C26.7374 105.714 30.2587 112.291 21.9024 109.472C13.5443 106.653 10.3704 90.7628 9.13086 88.6954C7.89135 86.6263 1.90006 82.5654 1.90006 82.5654Z" fill="#B8A3B0"/>
<path fill-rule="evenodd" clip-rule="evenodd" d="M44.6769 32.847C44.6769 32.847 41.7021 28.55 41.3763 27.0973C41.0488 25.6445 40.629 20.4265 41.3202 17.1334C42.0115 13.8404 44.2987 10.6212 45.5563 9.38655C46.8139 8.15189 49.2821 6.50086 49.2821 6.50086C49.2821 6.50086 52.1918 3.74854 53.6683 2.62743C55.1431 1.50451 63.0163 -1.19373 69.1939 1.72441C75.3734 4.64255 80.4563 8.76111 81.5981 11.0881C82.7381 13.415 82.0867 16.8234 82.0867 16.8234C82.0867 16.8234 82.2586 17.5516 82.2857 20.4012C82.3129 23.2509 82.4703 26.1979 80.896 28.6059C79.3218 31.014 76.1497 34.4981 76.1497 34.4981C76.1497 34.4981 63.4578 37.6379 61.6229 37.5964C59.7845 37.555 44.6769 32.847 44.6769 32.847Z" fill="#B8A3B0"/>
<path fill-rule="evenodd" clip-rule="evenodd" d="M22.6624 34.4242C22.6624 34.4242 21.6491 35.8895 21.2311 36.9764C20.8131 38.0615 19.3582 41.3041 18.8968 42.2143C18.4336 43.1245 16.4413 47.1638 16.4413 47.1638C16.4413 47.1638 17.3225 48.5679 17.6356 49.6421C17.9504 50.7182 16.6295 49.4835 16.0993 49.0581C15.5691 48.6346 13.3905 47.6594 13.7723 50.6785C14.1541 53.6976 15.6198 57.252 17.0421 58.438C18.4643 59.624 20.8764 59.9647 20.8764 59.9647C20.8764 59.9647 21.897 63.5857 23.9852 65.3053C26.0733 67.0248 28.4058 68.4794 29.9909 69.0165C31.5761 69.5554 32.5532 70.1899 34.9598 68.4307C37.3647 66.6715 42.6774 59.4582 42.6774 59.4582C42.6774 59.4582 42.8728 56.641 42.7244 55.4387C42.5761 54.2383 42.216 54.7448 40.6743 53.53C39.1326 52.3151 39.603 51.3094 40.4137 50.2261C41.2244 49.1428 41.7962 48.5751 41.7039 47.7207C41.6098 46.8682 40.3449 44.1249 39.7876 43.6851C39.2303 43.2471 36.7784 42.9857 35.1734 42.2359C33.5683 41.4843 30.5718 39.3574 30.5718 39.3574C30.5718 39.3574 30.3148 40.5362 27.7924 41.0589C25.2699 41.5816 23.8151 41.3077 23.464 40.5957C23.1148 39.8837 22.7619 38.7933 22.6751 37.391C22.5918 35.9905 22.6624 34.4242 22.6624 34.4242Z" fill="#FFE5EE"/>
<path fill-rule="evenodd" clip-rule="evenodd" d="M48.2958 22.6272L46.5189 25.9653C46.5189 25.9653 46.5261 27.4559 46.736 28.8835C46.946 30.311 47.2065 33.7681 47.2065 33.7681C47.2065 33.7681 46.5895 30.0965 44.9718 30.5111C43.3541 30.9256 42.1019 33.1138 43.3432 36.3401C44.5845 39.5665 45.1021 42.299 46.3054 42.773C47.5105 43.2489 48.7917 43.0308 48.7917 43.0308C48.7917 43.0308 48.8097 45.6677 50.5975 48.1389C52.3853 50.61 53.7135 50.4153 53.5127 51.4842C53.31 52.553 53.205 52.8054 54.6436 54.1356C56.0822 55.4658 59.484 58.93 62.8389 58.2217C66.1937 57.5133 70.2687 52.3728 70.2687 52.3728V48.3624C70.2687 48.3624 70.5184 48.0487 71.1536 46.185C71.7887 44.3213 72.3623 44.0113 73.8715 42.9136C75.3806 41.8159 77.0743 39.2565 77.5629 37.7244C78.0514 36.1923 78.6413 33.5572 78.1148 32.3441C77.5882 31.1311 76.4663 31.3762 75.719 31.944C74.9716 32.5118 73.1332 35.2443 73.334 34.6459C73.5349 34.0456 74.4849 29.9631 74.4849 29.9631C74.4849 29.9631 72.9794 28.8492 70.8948 28.66C68.8103 28.4707 64.9813 28.1391 64.1236 27.7173C63.2677 27.2955 62.1567 28.2815 60.2477 27.7371C58.3386 27.1928 53.9831 25.6283 53.5163 24.9289C53.0512 24.2278 52.1212 21.6521 52.1212 21.6521C52.1212 21.6521 52.9463 25.0713 51.2019 25.1885C49.4612 25.302 48.2958 22.6272 48.2958 22.6272Z" fill="#FFE5EE"/>
<path fill-rule="evenodd" clip-rule="evenodd" d="M10.6291 142.898C10.6291 142.898 10.3414 137.347 9.90714 133.937C9.47466 130.526 7.03363 116.848 7.09335 113.008C7.15306 109.171 6.88887 107.985 6.50164 107.026C6.1144 106.067 2.69805 98.1708 1.96339 93.6323C1.22873 89.092 0.602636 83.3494 1.00797 81.6587C1.4133 79.9663 4.34108 77.0625 6.47992 75.3196C8.62057 73.5784 13.3543 72.2032 13.3543 72.2032C13.3543 72.2032 12.9833 75.7341 13.9785 79.2201C14.9738 82.7042 15.8659 82.6068 17.0999 84.1767C18.334 85.7467 18.8515 85.5376 18.7448 88.7153C18.638 91.893 18.5313 94.9283 18.3702 96.3612C18.2092 97.7941 18.0264 98.4214 19.1574 99.3244C20.2865 100.227 21.0374 100.874 21.0374 100.874C21.0374 100.874 17.8889 104.22 20.0965 105.555C22.3023 106.891 25.5359 106.832 25.5359 106.832C25.5359 106.832 23.2342 92.4679 23.777 88.6973C24.3199 84.9266 24.5823 78.4378 24.7252 76.6011C24.8682 74.7644 23.7264 72.6808 23.4115 71.2893C23.0967 69.8979 23.1889 66.3993 23.3572 65.6549C23.5255 64.9087 24.6239 65.983 27.5879 67.5763C30.55 69.1697 32.5658 69.7717 33.3602 69.532C34.1546 69.2922 37.77 69.4274 37.77 69.4274L53.2594 84.211C53.2594 84.211 56.4912 85.6674 57.937 88.0051C59.3809 90.3429 61.8437 94.5696 62.354 96.837C62.8643 99.1045 62.126 100.62 61.2122 101.383C60.2984 102.147 58.896 102.093 58.4056 103.975C57.9152 105.856 53.804 111.85 52.4089 113.477C51.0138 115.105 37.314 127.745 33.8813 130.708C30.4487 133.672 26.1819 135.027 26.1819 135.027V141.784C26.1819 141.784 28.1778 143.035 22.2589 143.708C16.3363 144.378 10.6291 142.898 10.6291 142.898Z" fill="#F592B6"/>
<path fill-rule="evenodd" clip-rule="evenodd" d="M53.263 51.7636C53.263 51.7636 54.6291 53.9679 56.3391 55.2333C58.0491 56.4986 59.0588 57.2898 62.3033 56.394C65.5477 55.4964 68.2765 53.8003 69.2445 52.8036C70.2108 51.8068 70.3176 49.716 70.3176 49.716C70.3176 49.716 71.5571 48.9067 72.3931 50.0603C73.2291 51.2156 73.4806 50.6605 74.4976 49.8908C75.5145 49.1194 86.9741 42.901 95.7955 43.9735C104.617 45.0441 106.571 46.1742 108.154 49.3898C109.738 52.6053 108.639 59.3482 108.639 59.3482C108.639 59.3482 109.698 60.4675 110.382 61.5003C111.066 62.5331 111.437 67.5493 111.846 69.3445C112.255 71.1397 113.266 78.2467 114.037 94.1893C114.808 110.132 115.613 118.809 115.449 119.919C115.282 121.029 115.174 124.495 111.375 125.265C107.575 126.033 100.974 127.071 100.974 127.071L102.078 135.24L102.373 141.532C102.373 141.532 76.0682 140.883 62.4426 142.318C48.817 143.754 25.9195 142.815 25.9195 142.815L26.2723 138.39V135.112C26.2723 135.112 32.6164 132.01 36.1233 127.779C39.6301 123.549 53.8963 112.196 55.3023 110.162C56.7083 108.127 58.4002 105.631 58.5123 104.615C58.6245 103.598 58.4997 102.536 58.4997 102.536C58.4997 102.536 61.2682 102.556 61.9414 100.534C62.6145 98.5115 63.0542 98.1366 62.515 96.8929C61.9757 95.6492 60.1445 90.6637 59.1529 89.4921C58.1613 88.3205 58.373 86.1468 55.7329 86.3865C53.0911 86.6263 51.5656 87.0102 50.7749 88.0087C49.9841 89.0055 47.1866 91.7938 47.1468 92.3706C47.1052 92.9474 47.344 93.5061 46.6691 93.0808C45.9942 92.6554 43.146 92.8158 41.9861 93.7296C40.8262 94.6435 36.7801 98.3799 34.5508 100.471C32.3215 102.562 25.6915 109.02 25.6915 109.02L25.4779 104.67C25.4779 104.67 21.4373 89.6435 25.145 80.5124C28.8527 71.3813 29.1766 71.5345 34.1346 68.7209C39.0927 65.9073 47.3006 61.9671 47.3006 61.9671C47.3006 61.9671 49.4123 59.8385 49.5697 58.5155C49.7272 57.1925 49.8755 53.548 50.603 52.5999C51.3304 51.65 53.263 51.7636 53.263 51.7636Z" fill="#F592B6"/>
<path fill-rule="evenodd" clip-rule="evenodd" d="M57.1825 86.5776C57.1825 86.5776 57.0504 86.1468 60.4287 83.445C63.8071 80.7431 66.9719 78.1404 70.2634 76.4263C73.5567 74.7122 75.3355 73.8362 76.0502 72.9764C76.765 72.1185 78.6125 70.1899 78.6125 70.1899C78.6125 70.1899 80.849 72.36 83.652 73.7767C86.4549 75.1952 88.5141 76.3632 88.5141 76.3632L87.6057 78.0034C87.6057 78.0034 88.8326 79.8491 88.3712 81.2622C87.9097 82.6753 87.2855 84.4129 85.9917 85.1122C84.6997 85.8115 83.0259 86.1216 83.0259 86.1216C83.0259 86.1216 83.4312 85.8494 82.0361 88.9063C80.6409 91.9651 80.0438 95.9322 79.0703 98.744C78.0968 101.556 76.5044 105.382 76.09 105.974C75.6756 106.563 73.2002 108.225 71.8938 106.79C70.5891 105.357 68.329 104.809 67.7319 103.243C67.1348 101.677 66.4544 98.297 66.4616 97.2732C66.4689 96.2494 66.3892 94.2469 66.3892 94.2469C66.3892 94.2469 65.2131 94.5011 63.9934 94.8327C62.7756 95.1644 61.8799 95.0797 61.8799 95.0797C61.8799 95.0797 61.3172 93.0483 60.4414 91.5415C59.5674 90.0329 57.1825 86.5776 57.1825 86.5776Z" fill="#FFE5EE"/>
<path fill-rule="evenodd" clip-rule="evenodd" d="M34.7027 128.872C34.7027 128.872 34.2757 126.071 36.1739 124.129C38.0721 122.186 41.5644 120.103 45.7733 117.754C49.9822 115.408 55.3384 113.01 63.816 112.974C72.2935 112.938 71.5317 112.428 71.5317 112.428C71.5317 112.428 72.8327 112.971 72.8798 115.544C72.9268 118.118 73.1186 120.626 73.5565 122.374C73.9963 124.122 73.7013 125.683 72.925 125.678C72.1487 125.672 70.2343 125.326 66.7202 126.154C63.2043 126.981 59.0515 126.532 57.2637 127.266C55.4759 127.998 53.6592 128.751 50.6065 130.625C47.5539 132.5 44.5302 134.746 42.4203 134.398C40.3104 134.05 39.0673 133.846 37.7445 132.496C36.4182 131.145 34.7027 128.872 34.7027 128.872Z" fill="#FFE5EE"/>
<path fill-rule="evenodd" clip-rule="evenodd" d="M48.8691 21.5439C48.9023 21.6513 48.9271 21.7836 48.9437 21.9158C49.0598 22.8334 49.1842 23.8255 49.898 24.4703C50.122 24.6687 50.1385 25.0075 49.9393 25.2307C49.7401 25.4539 49.3999 25.4705 49.1758 25.2721C48.263 24.4537 48.0222 23.2303 47.8645 22.0565C47.8396 21.8498 47.7899 21.7093 47.7568 21.6184C47.7236 21.5109 47.7069 21.4282 47.7069 21.3538C47.7069 21.1636 47.7652 21.0231 47.8731 20.9073C47.956 20.8247 48.0889 20.7255 48.3378 20.6841C48.6366 20.6345 48.9103 20.8412 48.9518 21.1388C48.9932 21.2876 48.9521 21.4364 48.8691 21.5439Z" fill="#4A2C37"/>
<path fill-rule="evenodd" clip-rule="evenodd" d="M49.2508 21.9406C49.3836 22.7176 50.014 23.5113 50.4207 24.1065C50.5867 24.3545 50.919 24.4206 51.1679 24.2552C51.4169 24.0899 51.483 23.7593 51.317 23.5113C50.9851 23.0236 50.4291 22.3952 50.3129 21.7587C50.2631 21.4611 49.9811 21.271 49.6824 21.3206C49.3919 21.3702 49.1927 21.643 49.2508 21.9406Z" fill="#4A2C37"/>
<path fill-rule="evenodd" clip-rule="evenodd" d="M51.2336 19.4357C51.3415 20.6261 51.5906 21.8578 51.9889 22.9821C53.7234 27.9668 58.6864 28.5703 63.3919 27.9834C63.6907 27.942 63.898 27.6775 63.8648 27.3799C63.8316 27.0823 63.5577 26.8756 63.259 26.9087C59.0597 27.4295 54.5533 27.0741 53.0097 22.6267C52.6445 21.5768 52.4123 20.4361 52.3127 19.3366C52.2878 19.039 52.0223 18.824 51.7235 18.8488C51.433 18.8736 51.2087 19.1381 51.2336 19.4357Z" fill="#4A2C37"/>
<path fill-rule="evenodd" clip-rule="evenodd" d="M60.1218 23.6104C62.155 26.3631 64.7362 28.6116 68.2384 28.6116C68.5372 28.6116 68.7778 28.372 68.7778 28.0744C68.7778 27.7768 68.5372 27.537 68.2384 27.537C65.0931 27.537 62.8109 25.4455 60.9934 22.9738C60.8191 22.7341 60.4787 22.6846 60.2381 22.8582C59.9974 23.0318 59.9392 23.3706 60.1218 23.6104Z" fill="#4A2C37"/>
<path fill-rule="evenodd" clip-rule="evenodd" d="M67.4833 25.4621C68.363 26.6277 69.6992 27.2147 71.027 27.8264C72.1722 28.3555 73.3176 28.8927 74.0147 30.0501C74.1641 30.3063 74.5043 30.389 74.7615 30.2402C75.0188 30.0914 75.102 29.7525 74.9443 29.4963C74.131 28.1406 72.8281 27.4625 71.4837 26.8508C70.3218 26.3218 69.135 25.8423 68.3549 24.8173C68.1724 24.5776 67.832 24.528 67.5996 24.7099C67.3506 24.8835 67.3007 25.2224 67.4833 25.4621Z" fill="#4A2C37"/>
<path fill-rule="evenodd" clip-rule="evenodd" d="M45.6985 25.6854C45.8644 29.3971 46.7357 33.0096 47.242 36.6799C47.881 41.367 47.7567 45.6821 50.9518 49.493C51.7817 50.485 52.9102 51.0885 53.9642 51.7911C54.8107 52.3532 55.9313 53.2872 57.0682 53.9486C57.9147 54.4363 58.7695 54.7669 59.5579 54.7669C59.8567 54.7669 60.0973 54.5273 60.0973 54.2297C60.0973 53.9321 59.8567 53.6925 59.5579 53.6925C58.9438 53.6925 58.2713 53.4031 57.6157 53.0145C56.4953 52.3698 55.4082 51.4439 54.57 50.89C53.599 50.2452 52.5537 49.7079 51.7902 48.7985C48.7445 45.153 48.9352 41.0116 48.3211 36.5312C47.8231 32.8939 46.9517 29.3226 46.7857 25.6357C46.7774 25.3381 46.52 25.1068 46.2212 25.1233C45.9141 25.1316 45.6819 25.3878 45.6985 25.6854Z" fill="#4A2C37"/>
<path fill-rule="evenodd" clip-rule="evenodd" d="M73.4587 31.2072C72.8944 34.1252 72.1308 37.0351 71.666 39.9698C70.8112 45.3513 70.1224 49.4514 64.7861 52.1132C63.5496 52.7249 62.3131 53.684 60.8774 53.684C60.5786 53.684 60.338 53.9236 60.338 54.2212C60.338 54.5188 60.5786 54.7585 60.8774 54.7585C62.4791 54.7585 63.8901 53.7584 65.2761 53.0723C70.9941 50.2286 71.8323 45.8885 72.7451 40.135C73.2099 37.217 73.965 34.3154 74.5293 31.4138C74.5874 31.1245 74.3965 30.8352 74.0978 30.7773C73.799 30.7194 73.5168 30.9178 73.4587 31.2072Z" fill="#4A2C37"/>
<path fill-rule="evenodd" clip-rule="evenodd" d="M74.189 34.6546C74.5625 34.0181 75.4174 32.9186 76.239 32.373C76.405 32.2656 76.5709 32.1746 76.7285 32.1333C76.8198 32.1085 76.8945 32.1002 76.9692 32.125C77.0439 32.1581 77.102 32.2242 77.1601 32.3234C77.2597 32.5052 77.3425 32.7697 77.3923 33.1087C77.4504 33.4889 77.4755 33.861 77.4506 34.2495C77.3594 35.6631 76.6786 38.2091 75.5416 40.1766C74.8445 41.4 73.9815 42.4085 72.9442 42.6648C72.6537 42.7392 72.4794 43.0286 72.5458 43.3179C72.6205 43.6072 72.911 43.7808 73.2015 43.7064C74.4795 43.3923 75.6081 42.2183 76.4712 40.7138C77.6912 38.5893 78.4217 35.8366 78.5212 34.3155C78.5461 33.8526 78.5212 33.398 78.4548 32.9434C78.2805 31.8191 77.824 31.3066 77.351 31.1165C76.853 30.9264 76.239 31.0668 75.6166 31.4719C74.6622 32.1002 73.6745 33.3649 73.2347 34.1006C73.0853 34.3569 73.1683 34.6876 73.4256 34.8364C73.7077 34.9935 74.0396 34.9109 74.189 34.6546Z" fill="#4A2C37"/>
<path fill-rule="evenodd" clip-rule="evenodd" d="M47.3915 33.3484C47.2338 32.282 47.0844 31.1909 46.0802 30.4634C45.4163 29.984 44.6033 30.0006 43.9062 30.3478C43.2505 30.6702 42.711 31.2818 42.5284 31.9597C42.2794 32.8938 42.404 33.7782 42.5782 34.704C43.0181 36.9856 43.765 38.9449 44.6198 41.0777C44.7442 41.3836 44.8602 41.805 45.0262 42.177C45.1756 42.4994 45.3583 42.7804 45.5907 42.9788C45.8064 43.1607 46.047 43.2517 46.3043 43.2931C46.5449 43.3344 46.8104 43.3097 47.0511 43.351C47.3416 43.4006 47.6237 43.2022 47.6735 42.9046C47.7233 42.607 47.5245 42.3342 47.2257 42.2846C47.0432 42.2515 46.8521 42.2515 46.6613 42.2432C46.5285 42.2349 46.3955 42.2431 46.2877 42.1605C46.13 42.0199 46.0305 41.7968 45.9392 41.5653C45.8147 41.2512 45.7235 40.9206 45.6239 40.6726C44.794 38.6143 44.0636 36.7128 43.6403 34.4974C43.4909 33.7286 43.3583 33.0011 43.5658 32.2324C43.6737 31.8438 43.9971 31.4968 44.3705 31.3149C44.7108 31.1496 45.1092 31.1083 45.4245 31.3397C46.1631 31.877 46.18 32.7284 46.2962 33.5137C46.3377 33.8113 46.6113 34.0097 46.9101 33.9684C47.2337 33.9188 47.433 33.6378 47.3915 33.3484Z" fill="#4A2C37"/>
<path fill-rule="evenodd" clip-rule="evenodd" d="M49.7235 5.9036C49.1757 5.482 48.6776 5.02732 48.105 4.63879C47.856 4.47346 47.5161 4.53954 47.3501 4.78753C47.1841 5.03553 47.2502 5.37459 47.4992 5.53992C48.0552 5.91191 48.5286 6.35001 49.0597 6.75507C49.2921 6.93693 49.6323 6.89551 49.8232 6.65578C50.0057 6.42431 49.9558 6.08546 49.7235 5.9036Z" fill="#4A2C37"/>
<path fill-rule="evenodd" clip-rule="evenodd" d="M47.4247 6.68053C47.1923 6.77146 46.9269 6.6888 46.7776 6.47387C46.6116 6.22587 46.6777 5.88703 46.9267 5.72996C47.325 5.46543 47.7067 5.53144 48.0718 5.80423C48.2129 5.9117 48.3625 6.06049 48.4953 6.20928C48.57 6.28368 48.6364 6.36633 48.7028 6.3994C48.9683 6.53993 49.068 6.86243 48.9269 7.12696C48.7858 7.39149 48.4622 7.4907 48.1967 7.35017C48.0058 7.25097 47.7981 7.03594 47.599 6.82927C47.5492 6.77967 47.4745 6.7136 47.4247 6.68053Z" fill="#4A2C37"/>
<path fill-rule="evenodd" clip-rule="evenodd" d="M47.1178 7.65596C46.3045 7.72209 45.5078 8.20153 44.8024 8.87939C43.8563 9.78871 43.0598 11.0619 42.5453 11.9216C40.8938 14.6661 39.9477 18.9645 40.2299 22.9242C40.4207 25.6026 41.1844 28.1323 42.645 29.9427C42.8359 30.1741 43.1761 30.2153 43.4084 30.0252C43.6408 29.8351 43.6824 29.4962 43.4915 29.2648C42.1637 27.6115 41.4911 25.2968 41.3086 22.8417C41.0347 19.1135 41.9147 15.0628 43.4749 12.4754C43.9479 11.6818 44.6863 10.4998 45.5577 9.64832C46.064 9.15233 46.6117 8.77197 47.2009 8.72237C47.4997 8.69757 47.7238 8.44135 47.6989 8.14376C47.674 7.85443 47.4166 7.63943 47.1178 7.65596Z" fill="#4A2C37"/>
<path fill-rule="evenodd" clip-rule="evenodd" d="M50.5949 4.59738C50.5784 4.59738 50.5785 4.56426 50.5702 4.54773C50.5536 4.5064 50.5453 4.45686 50.537 4.40726C50.4872 4.151 50.5123 3.86176 50.5123 3.67163C50.5123 3.37404 50.2713 3.13419 49.9725 3.13419C49.6738 3.13419 49.4332 3.37404 49.4332 3.67163C49.4332 3.96923 49.4082 4.4486 49.5243 4.82059C49.6488 5.21738 49.898 5.52323 50.3129 5.63897C50.6034 5.72163 50.902 5.54807 50.9767 5.25874C51.0514 4.96941 50.8854 4.67177 50.5949 4.59738Z" fill="#4A2C37"/>
<path fill-rule="evenodd" clip-rule="evenodd" d="M52.2215 4.93634C53.9975 2.13399 56.6036 1.58007 59.7157 1.36514C60.9024 1.28248 62.0643 1.04268 63.2594 1.08401C66.7781 1.19147 72.1724 3.0018 74.9857 5.1759C75.5832 5.63882 75.94 6.33319 76.5126 6.81265C79.301 9.16034 82.3055 12.0206 81.6913 15.9306C81.6415 16.2282 81.8491 16.501 82.1395 16.5506C82.43 16.6002 82.7121 16.3935 82.7619 16.1042C83.4342 11.8056 80.2723 8.5817 77.21 5.99427C76.629 5.50655 76.264 4.80389 75.6499 4.3327C72.6788 2.0346 66.9937 0.125053 63.2841 0.00932215C62.0475 -0.0320105 60.8526 0.207799 59.6326 0.298731C56.1553 0.53846 53.2839 1.23278 51.3004 4.36579C51.1427 4.61379 51.2176 4.95284 51.4665 5.1099C51.7238 5.26697 52.0638 5.18433 52.2215 4.93634Z" fill="#4A2C37"/>
<path fill-rule="evenodd" clip-rule="evenodd" d="M79.8237 13.7982C81.6163 16.6005 82.3716 21.5191 81.5334 24.7513C80.994 26.8262 79.9232 29.0168 78.8942 30.885C78.7531 31.1495 78.8446 31.4718 79.1101 31.6206C79.3674 31.7612 79.6993 31.6702 79.8404 31.4057C80.9026 29.4631 82.0147 27.1815 82.5708 25.024C83.4753 21.552 82.6619 16.2449 80.7282 13.2194C80.5705 12.9714 80.2303 12.897 79.9814 13.0541C79.7407 13.2111 79.6661 13.5502 79.8237 13.7982Z" fill="#4A2C37"/>
<path fill-rule="evenodd" clip-rule="evenodd" d="M78.7367 28.4712C78.7118 29.3805 78.4714 30.1657 78.1394 31.0006C78.0315 31.2817 78.1642 31.5959 78.4381 31.7034C78.7202 31.8108 79.0357 31.6785 79.1436 31.4057C79.5253 30.455 79.7907 29.554 79.8239 28.5041C79.8322 28.2065 79.5915 27.9586 79.2927 27.9503C78.9856 27.9338 78.7367 28.1736 78.7367 28.4712Z" fill="#4A2C37"/>
<path fill-rule="evenodd" clip-rule="evenodd" d="M48.7194 30.2815C50.0389 29.1325 51.8646 28.1323 53.5825 29.1077C53.8397 29.2565 54.1718 29.1656 54.3212 28.9093C54.4706 28.6531 54.3791 28.3223 54.1218 28.1735C51.9807 26.9501 49.6573 28.033 48.0058 29.4714C47.7817 29.6698 47.7568 30.0087 47.956 30.2319C48.1551 30.4551 48.4953 30.4799 48.7194 30.2815Z" fill="#4A2C37"/>
<path fill-rule="evenodd" clip-rule="evenodd" d="M64.6615 29.1904C66.1553 28.587 67.948 28.4052 69.3256 29.2649C69.5746 29.422 69.9148 29.3476 70.0724 29.0913C70.2301 28.8434 70.1555 28.5043 69.8982 28.3472C68.2301 27.3057 66.064 27.4545 64.2465 28.1902C63.9727 28.2977 63.84 28.6202 63.9479 28.893C64.0641 29.174 64.3793 29.3062 64.6615 29.1904Z" fill="#4A2C37"/>
<path fill-rule="evenodd" clip-rule="evenodd" d="M49.8564 34.7537C50.2382 34.5718 50.6695 34.2081 51.126 33.9436C51.4164 33.77 51.7068 33.6212 52.0138 33.7452C52.2047 33.8279 52.3543 33.9766 52.5037 34.1254C52.7361 34.3486 52.9684 34.5718 53.2339 34.7289C53.4912 34.886 53.8231 34.8033 53.9808 34.547C54.1385 34.2908 54.0557 33.9602 53.7984 33.8031C53.5495 33.6543 53.35 33.4229 53.1343 33.2163C52.9268 33.0261 52.7026 32.8607 52.4454 32.7533C51.9225 32.5301 51.4 32.6044 50.8938 32.8441C50.346 33.1004 49.8398 33.5717 49.3916 33.7783C49.126 33.9106 49.0096 34.2329 49.1424 34.4974C49.2586 34.7702 49.5825 34.886 49.8564 34.7537Z" fill="#4A2C37"/>
<path fill-rule="evenodd" clip-rule="evenodd" d="M64.7948 34.1006C64.8612 33.8857 65.0933 33.737 65.3589 33.6047C65.8237 33.3733 66.4045 33.2327 66.7448 33.3567C66.8942 33.4146 67.0107 33.5468 67.1269 33.6873C67.2929 33.9022 67.4338 34.142 67.5666 34.3404C67.7325 34.5884 68.0644 34.6546 68.3134 34.4893C68.5624 34.324 68.6289 33.9849 68.4629 33.7369C68.2803 33.4724 68.0812 33.1334 67.8405 32.8606C67.633 32.6209 67.3842 32.4309 67.1103 32.3317C66.5626 32.1333 65.6082 32.2572 64.8613 32.6374C64.3136 32.9185 63.8986 33.3319 63.7575 33.7783C63.6662 34.0676 63.8319 34.3653 64.1141 34.4562C64.4045 34.5471 64.7119 34.3899 64.7948 34.1006Z" fill="#4A2C37"/>
<path fill-rule="evenodd" clip-rule="evenodd" d="M56.1886 40.8627C56.894 41.6646 57.5082 41.7803 58.5539 41.6315C58.8527 41.5901 59.06 41.3173 59.0102 41.0197C58.9687 40.7304 58.695 40.5237 58.3963 40.565C57.7822 40.656 57.4086 40.6229 57.0019 40.1517C56.8027 39.9285 56.4625 39.9037 56.2385 40.1021C56.0144 40.3005 55.9894 40.6313 56.1886 40.8627Z" fill="#4A2C37"/>
<path fill-rule="evenodd" clip-rule="evenodd" d="M55.7405 45.5994C56.67 45.6821 57.4585 45.8805 58.2055 45.9962C59.4835 46.1946 60.6369 46.1449 62.0145 45.0454C62.2137 44.8883 62.4958 44.748 62.7281 44.5744C62.9522 44.4008 63.1432 44.2024 63.2594 43.9709C63.3922 43.7064 63.2843 43.3756 63.0187 43.2434C62.7531 43.1111 62.4296 43.2186 62.2885 43.4831C62.2304 43.6071 62.0973 43.6899 61.9728 43.7808C61.757 43.9296 61.5168 44.0619 61.3342 44.2024C60.2636 45.0621 59.359 45.0786 58.3631 44.9298C57.5996 44.814 56.7779 44.6074 55.8235 44.5247C55.5248 44.4999 55.2676 44.7232 55.2344 45.0208C55.2261 45.3184 55.45 45.5829 55.7405 45.5994Z" fill="#4A2C37"/>
<path fill-rule="evenodd" clip-rule="evenodd" d="M62.7778 43.7147C62.9355 43.756 63.035 43.847 63.1263 43.9793C63.2922 44.2273 63.6241 44.2934 63.8731 44.128C64.1221 43.9627 64.1886 43.6319 64.0226 43.3839C63.7737 43.0119 63.4832 42.7806 63.0351 42.6731C62.7446 42.5987 62.4541 42.7723 62.3794 43.0616C62.313 43.351 62.4873 43.6403 62.7778 43.7147Z" fill="#4A2C37"/>
<path fill-rule="evenodd" clip-rule="evenodd" d="M52.703 51.3612C52.6864 51.3364 52.6781 51.3198 52.6698 51.295C52.5453 51.0222 52.6699 50.6999 52.9437 50.5842C53.0848 50.5181 53.2259 50.5263 53.3421 50.5594C53.4749 50.6007 53.6159 50.6833 53.7072 50.8734C53.757 50.9726 53.7988 51.2207 53.7822 51.5431C53.7656 51.9316 53.724 52.6591 53.7157 52.7996C53.7904 52.9897 53.749 53.2129 53.5913 53.3699C53.3838 53.5849 53.0353 53.5849 52.8279 53.3699C52.7532 53.3038 52.6368 53.1137 52.6285 52.8244C52.6119 52.4689 52.703 51.7415 52.703 51.3612ZM53.3506 51.5844C53.2676 51.6175 53.1763 51.6258 53.0933 51.6175C53.168 51.6258 53.2593 51.6175 53.3506 51.5844Z" fill="#4A2C37"/>
<path fill-rule="evenodd" clip-rule="evenodd" d="M69.5001 49.1788C69.442 49.0878 69.417 48.9805 69.417 48.8647C69.4502 48.3439 69.865 48.3027 69.9397 48.2944C70.0642 48.2861 70.3218 48.3026 70.4629 48.6002C70.5127 48.6994 70.6372 49.4683 70.6703 49.7659C70.7118 50.1296 70.6703 50.5594 70.6703 50.9314C70.6703 51.229 70.4294 51.4686 70.1306 51.4686C69.8318 51.4686 69.5912 51.229 69.5912 50.9314C69.5912 50.5924 69.6327 50.2122 69.5912 49.8815C69.5829 49.7492 69.525 49.3854 69.5001 49.1788Z" fill="#4A2C37"/>
<path fill-rule="evenodd" clip-rule="evenodd" d="M53.7985 54.2709C54.645 54.6842 55.3754 55.2793 56.1306 55.8414C56.9605 56.4614 57.8151 57.0402 58.8525 57.3543C60.1388 57.7511 61.5581 57.5445 62.944 57.0154C64.8943 56.2797 66.7862 54.9156 68.1224 53.9401C68.9606 53.3284 69.857 52.8572 70.5873 52.1381C70.7948 51.9314 70.7948 51.5843 70.5873 51.3776C70.3799 51.1627 70.0314 51.1627 69.8239 51.3776C69.1351 52.0637 68.2717 52.5019 67.4833 53.0723C66.2136 54.0064 64.413 55.3041 62.5623 56.0067C61.417 56.4449 60.2385 56.6516 59.1763 56.321C58.2634 56.0399 57.5162 55.519 56.7858 54.9734C55.9808 54.37 55.1928 53.7419 54.2799 53.2955C54.0144 53.1632 53.6823 53.2788 53.5578 53.5433C53.4168 53.8244 53.5247 54.1386 53.7985 54.2709Z" fill="#4A2C37"/>
<path fill-rule="evenodd" clip-rule="evenodd" d="M52.7446 50.9232C51.5578 51.1629 50.7694 51.6505 50.2383 52.2871C49.4665 53.2046 49.2172 54.4612 49.1093 55.8086C49.0263 56.8171 49.0184 57.8837 48.8524 58.8757C48.703 59.7684 48.4208 60.595 47.7818 61.2315C47.5744 61.4382 47.5744 61.7853 47.7818 61.9919C47.9893 62.1986 48.3378 62.1986 48.5453 61.9919C49.342 61.1984 49.7236 60.1652 49.9145 59.0492C50.0888 58.0324 50.0969 56.9329 50.1799 55.8914C50.321 54.081 50.6697 52.436 52.9602 51.973C53.2506 51.9152 53.4417 51.6258 53.3836 51.3365C53.3172 51.0554 53.0351 50.8653 52.7446 50.9232Z" fill="#4A2C37"/>
<path fill-rule="evenodd" clip-rule="evenodd" d="M70.4297 49.7904C71.0023 49.7987 71.3757 49.8814 71.6247 50.0715C71.8654 50.2534 71.9816 50.5179 72.1061 50.8403C72.2472 51.2123 72.3713 51.6422 72.5539 52.1299C73.5912 54.8165 73.9317 57.561 74.3964 60.3716C74.4462 60.6692 74.7284 60.8676 75.0188 60.818C75.3093 60.7684 75.5168 60.4956 75.467 60.198C74.9857 57.313 74.6288 54.5024 73.5665 51.7497C73.3507 51.1793 73.2098 50.6833 73.0438 50.2699C72.828 49.7491 72.5459 49.3441 72.0729 49.0796C71.6994 48.8647 71.1932 48.7325 70.4463 48.7159C70.1475 48.7077 69.8984 48.9473 69.8984 49.2449C69.8984 49.5342 70.1309 49.7821 70.4297 49.7904Z" fill="#4A2C37"/>
<path fill-rule="evenodd" clip-rule="evenodd" d="M49.0013 61.9835C49.1507 62.1157 49.3666 62.306 49.3915 62.3225C49.9143 62.7607 50.3291 63.2814 50.8187 63.7444C52.2129 65.0587 54.1882 66.1085 56.072 66.5301C58.2878 67.0261 60.5785 67.8032 62.894 67.613C65.5579 67.3898 68.5287 65.5299 70.4955 63.9014C71.0433 63.4467 71.7905 63.0747 72.4544 62.6283C73.0021 62.2646 73.5165 61.8513 73.724 61.223C73.8152 60.942 74.1224 60.785 74.4128 60.8842C74.695 60.9834 74.8528 61.2808 74.7532 61.5702C74.4711 62.4216 73.8154 63.0252 73.0602 63.5294C72.4212 63.951 71.7158 64.2982 71.1929 64.728C69.0767 66.4888 65.8566 68.4563 62.9851 68.696C60.5618 68.8944 58.1635 68.1007 55.8398 67.5882C53.7734 67.1336 51.6072 65.9763 50.0719 64.5379C49.5905 64.0915 49.1923 63.5791 48.686 63.1575C48.6445 63.1161 48.2379 62.8021 48.047 62.5871C47.9391 62.4631 47.881 62.339 47.8561 62.2481C47.8063 62.0497 47.8479 61.8845 47.9392 61.7605C48.0222 61.6447 48.1713 61.4959 48.4867 61.5124C48.7605 61.5124 48.9764 61.719 49.0013 61.9835ZM48.4619 62.5789H48.4372C48.4455 62.5789 48.4536 62.5789 48.4619 62.5789ZM48.4867 62.5789H48.4704H48.4867ZM48.5033 62.5789H48.4952H48.5033Z" fill="#4A2C37"/>
<path fill-rule="evenodd" clip-rule="evenodd" d="M53.6327 55.296C53.168 57.156 52.5706 58.8423 52.3133 60.8014C52.2469 61.2974 52.2468 61.8844 52.197 62.463C52.1555 62.959 52.0975 63.4467 51.8984 63.8435C51.7656 64.108 51.8735 64.4388 52.1391 64.571C52.4046 64.7033 52.7282 64.5958 52.8693 64.3313C53.3506 63.3723 53.2592 61.9752 53.392 60.9502C53.641 59.0323 54.2386 57.3875 54.6867 55.5689C54.7614 55.2795 54.5788 54.9819 54.2884 54.9158C53.9979 54.8248 53.6991 55.0067 53.6327 55.296Z" fill="#4A2C37"/>
<path fill-rule="evenodd" clip-rule="evenodd" d="M56.7776 65.8028C56.7859 65.654 56.8106 65.3482 56.8189 65.2159C56.8521 64.5711 56.9103 63.9345 56.9352 63.298C57.0099 61.5868 57.267 59.4624 57.823 57.8339C57.9226 57.5529 58.2298 57.404 58.5119 57.4949C58.7941 57.5941 58.9436 57.9 58.8523 58.1811C58.3295 59.7104 58.0888 61.7191 58.0224 63.3394C57.9975 63.9842 57.9393 64.629 57.9061 65.2738C57.8978 65.4805 57.8565 66.0095 57.8482 66.0839C57.7652 66.522 57.375 66.5301 57.3169 66.5301C57.292 66.5301 56.7695 66.4971 56.7695 65.9432C56.7612 65.8936 56.7693 65.8441 56.7776 65.8028ZM57.8482 65.9267V65.9515C57.8482 65.935 57.8482 65.9267 57.8482 65.9267Z" fill="#4A2C37"/>
<path fill-rule="evenodd" clip-rule="evenodd" d="M63.9229 65.8854C64.0059 65.9763 64.0558 66.1002 64.0558 66.2408C64.0558 66.5384 63.8152 66.778 63.5164 66.778C63.3339 66.778 63.0017 66.6458 62.8855 66.1994C62.7693 65.7447 62.7528 64.6039 62.7445 64.4964C62.5868 63.0911 62.3876 61.719 62.3295 60.3137C62.3212 60.1484 62.1803 59.1811 62.2384 58.7099C62.2799 58.404 62.4291 58.2056 62.5536 58.1147C62.8026 57.9411 63.1347 58.0074 63.309 58.2471C63.4417 58.4372 63.4333 58.677 63.3171 58.8588C63.3171 58.9332 63.3088 59.1316 63.3171 59.2804C63.342 59.702 63.4085 60.1566 63.4168 60.2641C63.4665 61.6529 63.6659 62.992 63.8236 64.3642C63.8319 64.4634 63.8316 65.4472 63.9229 65.8854Z" fill="#4A2C37"/>
<path fill-rule="evenodd" clip-rule="evenodd" d="M66.7446 56.5277C66.4874 56.4533 66.3297 56.197 66.3629 55.9325C66.4127 55.6432 66.6868 55.4365 66.9772 55.4778C67.3009 55.5274 67.5996 55.7753 67.7905 56.1969C68.0478 56.7508 68.1389 57.6684 68.197 57.9578C68.587 59.8839 68.8526 62.1654 68.8526 64.1328C68.8526 64.4304 68.612 64.6701 68.3133 64.6701C68.0145 64.6701 67.7739 64.4304 67.7739 64.1328C67.7739 62.2315 67.5166 60.0244 67.1349 58.1644C67.0934 57.9412 67.0352 57.3129 66.8775 56.8252C66.8526 56.7177 66.7695 56.5773 66.7446 56.5277Z" fill="#4A2C37"/>
<path fill-rule="evenodd" clip-rule="evenodd" d="M70.1225 53.6676C70.1557 54.5934 70.6784 55.5605 70.8361 56.4698C71.1266 58.0487 71.2928 59.9005 71.2928 61.5125C71.2928 61.8101 71.5334 62.0497 71.8322 62.0497C72.1309 62.0497 72.3715 61.8101 72.3715 61.5125C72.3715 59.8427 72.1974 57.9165 71.8986 56.2797C71.7409 55.42 71.2261 54.5107 71.2012 53.6345C71.1929 53.3369 70.944 53.1053 70.6453 53.1136C70.3465 53.1218 70.1059 53.37 70.1225 53.6676Z" fill="#4A2C37"/>
<path fill-rule="evenodd" clip-rule="evenodd" d="M22.8352 33.6294C21.8227 36.0598 21.8723 39.1845 23.6732 41.2511C23.8724 41.4743 24.2126 41.4992 24.4367 41.3008C24.6607 41.1024 24.6857 40.7633 24.4865 40.5401C22.9512 38.7876 22.9678 36.1094 23.8308 34.0427C23.947 33.7699 23.8146 33.4475 23.5407 33.34C23.2668 33.2243 22.9514 33.3566 22.8352 33.6294Z" fill="#4A2C37"/>
<path fill-rule="evenodd" clip-rule="evenodd" d="M24.2875 34.0677C24.1465 35.1093 23.6651 37.771 24.0801 39.5483C24.2958 40.4741 24.7522 41.1769 25.4825 41.4744C25.7647 41.5819 26.0802 41.4496 26.188 41.1768C26.2959 40.8957 26.1629 40.5817 25.889 40.4742C25.6317 40.3668 25.4494 40.1517 25.3249 39.8789C25.1589 39.5234 25.0759 39.0854 25.0344 38.606C24.8933 37.0188 25.2586 35.0679 25.3748 34.2247C25.4163 33.9271 25.2087 33.6543 24.91 33.6213C24.6029 33.5634 24.329 33.7701 24.2875 34.0677Z" fill="#4A2C37"/>
<path fill-rule="evenodd" clip-rule="evenodd" d="M28.4448 39.0523C28.5444 38.9531 28.6772 38.8953 28.8266 38.8953C29.1253 38.8953 29.3663 39.1351 29.3663 39.4327C29.3663 39.7055 29.2083 39.9781 28.8266 40.0939C28.644 40.1435 28.3787 40.16 28.0716 40.0773C27.5073 39.9285 26.7768 39.4575 26.4366 38.3911C25.8722 36.589 25.839 34.3653 26.2125 32.5218C26.2706 32.2325 26.561 32.0424 26.8515 32.1002C27.142 32.1581 27.3331 32.4474 27.275 32.7368C26.943 34.4066 26.9594 36.4319 27.4739 38.0686C27.6316 38.5811 27.9388 38.8706 28.2293 38.9946C28.2957 39.0276 28.3868 39.044 28.4448 39.0523Z" fill="#4A2C37"/>
<path fill-rule="evenodd" clip-rule="evenodd" d="M27.6983 34.1916C28.412 38.6968 31.0347 41.1025 34.9684 42.731C35.4581 42.9294 35.9477 42.9705 36.4374 42.9705C36.8357 42.9705 37.234 42.9458 37.6324 43.0119C38.7278 43.1938 39.7567 44.3016 40.3376 45.1944C40.8771 46.0376 41.2755 47.5751 40.8523 48.5175C40.5701 49.154 40.1302 49.6169 39.7817 50.1295C39.3501 50.7577 39.0347 51.4356 39.1094 52.3945C39.1509 52.9235 39.408 53.3286 39.7898 53.6593C40.0885 53.9238 40.4869 54.1303 40.877 54.337C41.2007 54.5023 41.5329 54.6678 41.7819 54.8744C41.9478 55.015 42.0888 55.1802 42.1137 55.4034C42.2133 56.321 41.7818 57.6768 41.7653 58.801C41.757 59.5202 41.9063 60.1567 42.3046 60.6196C42.703 61.0825 43.3587 61.4049 44.4624 61.4049C44.7612 61.4049 45.0018 61.1653 45.0018 60.8677C45.0018 60.5701 44.7612 60.3302 44.4624 60.3302C43.7902 60.3302 43.3667 60.198 43.126 59.9169C42.8853 59.6358 42.8442 59.2474 42.8525 58.8176C42.8691 57.6437 43.3005 56.2384 43.201 55.2878C43.1429 54.767 42.877 54.3702 42.487 54.0478C42.1799 53.7915 41.79 53.5848 41.3916 53.3781C41.0763 53.2128 40.7528 53.0476 40.5038 52.8409C40.3378 52.7004 40.2132 52.5349 40.1966 52.3117C40.1385 51.4851 40.5036 50.9643 40.8936 50.4269C41.2256 49.9723 41.5908 49.5178 41.8398 48.9474C42.3875 47.7074 41.9475 45.6904 41.2421 44.5992C40.5201 43.475 39.176 42.1687 37.8066 41.9372C37.3419 41.8628 36.8853 41.8878 36.4289 41.8878C36.0803 41.8878 35.7234 41.8793 35.3749 41.7305C31.8063 40.2591 29.4079 38.1017 28.7523 34.018C28.7025 33.7204 28.4287 33.522 28.1299 33.5716C27.856 33.6212 27.6485 33.894 27.6983 34.1916Z" fill="#4A2C37"/>
<path fill-rule="evenodd" clip-rule="evenodd" d="M16.9096 47.0791C17.0341 47.2858 17.3329 47.8066 17.3578 47.881C17.9885 49.3441 18.4285 50.8734 18.9762 52.3696C19.7729 54.5768 20.5528 57.6024 21.6649 60.2807C22.3786 62.0084 23.2336 63.5872 24.3373 64.6867C25.4577 65.8026 26.835 66.3567 28.1711 67.1337C28.6857 67.4313 29.0259 67.828 29.6068 68.0181C29.889 68.1173 30.0468 68.4149 29.9472 68.7043C29.8476 68.9853 29.5488 69.1423 29.2584 69.0431C28.6027 68.8282 28.2044 68.4067 27.6152 68.0677C26.196 67.2494 24.744 66.6377 23.5573 65.4556C22.3622 64.2652 21.4244 62.5623 20.6526 60.7023C19.5323 57.9992 18.7519 54.957 17.9469 52.7416C17.4158 51.2619 16.976 49.7575 16.3536 48.3108V48.3274C16.3536 48.3274 15.9305 47.6577 15.8309 47.3849C15.7313 47.1204 15.7728 46.9055 15.8309 46.798C16.777 44.9215 18.0216 42.8632 18.9677 40.8792C19.4656 39.8294 19.7313 38.6638 20.0549 37.5147C20.4035 36.2747 20.8266 35.0679 21.615 34.0428C21.7976 33.8031 22.138 33.7616 22.3704 33.9435C22.611 34.1254 22.6526 34.4644 22.4701 34.6959C21.7646 35.6135 21.4077 36.6962 21.0923 37.8039C20.752 39.0026 20.4615 40.2343 19.9386 41.3337C19.0423 43.2516 17.8391 45.244 16.9096 47.0791Z" fill="#4A2C37"/>
<path fill-rule="evenodd" clip-rule="evenodd" d="M18.0961 50.7329C17.623 49.6087 16.8344 48.7654 16.046 48.3521C15.4319 48.0297 14.8179 47.9555 14.2951 48.1291C13.4818 48.4018 12.793 49.3275 12.9092 51.2619C13.0586 53.6179 14.7099 56.9742 16.4111 58.6689C17.0087 59.2641 17.9965 59.5781 18.7185 60.0162C18.9758 60.1733 19.3076 60.0906 19.4653 59.8344C19.6147 59.5781 19.5315 59.2473 19.2826 59.0903C18.6269 58.7017 17.7225 58.4455 17.1831 57.9082C15.6478 56.3706 14.1375 53.3369 13.9964 51.1959C13.9549 50.518 14.0211 50.0054 14.1788 49.6417C14.295 49.3854 14.4444 49.2202 14.6436 49.1541C14.9091 49.0632 15.2246 49.1458 15.5399 49.3111C16.1457 49.6335 16.7349 50.2948 17.1 51.1545C17.2162 51.4273 17.5317 51.5595 17.8055 51.4437C18.0877 51.3197 18.2123 51.0057 18.0961 50.7329Z" fill="#4A2C37"/>
<path fill-rule="evenodd" clip-rule="evenodd" d="M17.3578 55.8166C17.3412 55.7505 17.3079 55.5604 17.2581 55.4281C17.0755 54.9569 16.7851 54.4279 16.7021 54.213C16.6025 53.9567 16.0216 53.3532 15.698 52.9234C15.5569 52.7415 15.4572 52.5844 15.4074 52.4769C15.3493 52.3447 15.3243 52.2373 15.3243 52.1546C15.3243 51.857 15.5653 51.6091 15.8641 51.6091C16.1214 51.6091 16.3368 51.791 16.3949 52.0224C16.4613 52.1051 16.8847 52.6672 17.1669 53.0144C17.4325 53.345 17.6484 53.6509 17.7148 53.8162C17.8143 54.0725 18.2127 54.7752 18.3704 55.3125C18.4783 55.701 18.4698 56.0399 18.3619 56.2465C18.3287 56.3126 18.2956 56.3622 18.2541 56.4201C18.196 56.4945 18.113 56.5441 18.0632 56.6267C18.0466 56.6433 18.0632 56.6764 18.0632 56.726C18.0715 56.8335 18.0965 56.9741 18.1463 57.1559C18.221 57.4452 18.0466 57.7429 17.7561 57.8173C17.4656 57.8917 17.167 57.7181 17.0923 57.4288C16.8517 56.4947 17.0422 56.1722 17.2082 55.9573C17.2497 55.9077 17.308 55.8745 17.3578 55.8166Z" fill="#4A2C37"/>
<path fill-rule="evenodd" clip-rule="evenodd" d="M21.8972 23.04C19.2913 22.7176 17.3988 23.8417 16.0129 25.6107C14.0544 28.1155 13.1499 31.9844 12.652 34.671C12.2536 36.7955 12.1291 39.6721 10.9257 41.5321C10.2535 42.5654 9.49022 43.3755 8.8429 44.2601C8.13749 45.2107 7.57293 46.2441 7.36545 47.6825C7.13308 49.2862 7.25765 51.0386 7.86347 52.5514C8.16224 53.2871 8.70165 54.1137 9.09171 54.9817C9.42366 55.7009 9.65613 56.4533 9.39886 57.1642C8.91752 58.5116 7.95476 59.5119 7.03358 60.5287C6.0045 61.6612 5.01696 62.8019 4.57711 64.3229C4.24515 65.472 4.02917 66.7203 4.15366 67.9272C4.22005 68.572 4.44409 69.3159 4.53538 70.0598C4.61007 70.655 4.6102 71.2585 4.25334 71.7545C4.22014 71.8041 4.16191 71.8207 4.10381 71.8455C3.97933 71.9034 3.83014 71.9364 3.68076 71.9777C3.24091 72.0852 2.78452 72.2092 2.48576 72.449C1.36539 73.3418 0.942261 74.8958 0.942261 76.268C0.942261 76.5656 1.18285 76.8054 1.48161 76.8054C1.78038 76.8054 2.02097 76.5656 2.02097 76.268C2.02097 75.2099 2.28663 73.9866 3.15802 73.2922C3.25761 73.2095 3.39015 73.1765 3.53123 73.1352C3.73871 73.0773 3.9713 73.0275 4.17878 72.9697C4.58543 72.8539 4.9339 72.6721 5.13308 72.3911C5.64762 71.6719 5.71386 70.8122 5.60598 69.9359C5.51469 69.2002 5.29916 68.4644 5.23276 67.8279C5.12488 66.7615 5.32402 65.6539 5.61448 64.6372C6.00454 63.2814 6.90906 62.2729 7.83025 61.2726C8.85102 60.1484 9.88849 59.0324 10.4196 57.5444C10.7101 56.7508 10.6019 55.9242 10.3114 55.1058C9.93797 54.0643 9.23258 53.0392 8.87572 52.1629C8.33629 50.8237 8.23688 49.2696 8.43605 47.8478C8.65183 46.3598 9.33215 45.3762 10.104 44.4007C10.6683 43.6898 11.2825 42.9872 11.8302 42.1357C13.0999 40.1683 13.2908 37.1344 13.7141 34.886C14.1124 32.7615 14.76 29.8433 16.038 27.5452C17.2414 25.3959 19.0171 23.7923 21.7557 24.1312C22.0545 24.1643 22.3201 23.9575 22.3616 23.66C22.403 23.3458 22.1876 23.0813 21.8972 23.04Z" fill="#4A2C37"/>
<path fill-rule="evenodd" clip-rule="evenodd" d="M39.8647 19.7087C39.7817 19.7665 39.3916 20.0559 39.1758 20.1551C38.8106 20.3204 38.4954 20.2624 38.2713 20.0392C37.2505 19.0225 33.7069 17.6503 32.2379 17.4602C30.2628 17.2122 27.8145 18.2621 26.1547 19.1962C24.6941 20.0064 23.1755 21.7009 23.3166 23.47C23.3415 23.7676 23.1173 24.0238 22.8185 24.0486C22.5198 24.0734 22.2623 23.8501 22.2374 23.5525C22.0632 21.3867 23.8392 19.254 25.6235 18.2537C27.4659 17.2287 30.1878 16.121 32.3705 16.3938C33.9141 16.5839 37.5076 17.9892 38.8354 19.0969C38.9848 18.9977 39.2421 18.816 39.35 18.7581C39.4911 18.6837 39.6238 18.6588 39.7151 18.6588C40.0139 18.6588 40.2545 18.8986 40.2545 19.1962C40.2711 19.4442 40.097 19.6508 39.8647 19.7087Z" fill="#4A2C37"/>
<path fill-rule="evenodd" clip-rule="evenodd" d="M17.8971 48.1702C18.2207 48.0628 18.4948 47.815 18.7355 47.5091C18.9679 47.2115 19.1586 46.8395 19.3993 46.6411C20.1794 45.9963 20.8598 45.9631 21.8059 45.897C22.1046 45.8722 22.3288 45.6159 22.3039 45.3183C22.279 45.0207 22.0216 44.7977 21.7228 44.8225C20.536 44.9134 19.6897 45.0043 18.7104 45.8144C18.4531 46.0211 18.2291 46.3681 17.9968 46.6988C17.8557 46.8889 17.7314 47.0874 17.5405 47.1535C17.2583 47.2527 17.1086 47.5586 17.2082 47.8397C17.3078 48.1207 17.6149 48.2694 17.8971 48.1702Z" fill="#4A2C37"/>
<path fill-rule="evenodd" clip-rule="evenodd" d="M33.3995 43.3261C34.2543 42.4333 35.9888 41.9373 37.134 42.4995C37.3996 42.6317 37.7314 42.5242 37.8642 42.2597C37.997 41.9952 37.8891 41.6644 37.6235 41.5321C36.0965 40.7716 33.7564 41.3833 32.6194 42.5737C32.4119 42.7887 32.4203 43.1277 32.636 43.3344C32.8518 43.5493 33.2003 43.541 33.3995 43.3261Z" fill="#4A2C37"/>
<path fill-rule="evenodd" clip-rule="evenodd" d="M20.3118 51.5678C21.0836 50.4931 22.2041 50.022 23.366 50.6007C23.6316 50.7329 23.9551 50.6254 24.0962 50.3609C24.229 50.0964 24.1211 49.7656 23.8555 49.6334C22.1874 48.7984 20.5523 49.3854 19.4402 50.9395C19.2659 51.1793 19.3243 51.5181 19.565 51.6917C19.7974 51.8653 20.1376 51.8075 20.3118 51.5678Z" fill="#4A2C37"/>
<path fill-rule="evenodd" clip-rule="evenodd" d="M34.462 47.8892C35.3417 46.9303 36.6948 46.3021 37.6823 47.294C37.8898 47.5007 38.2383 47.5007 38.4458 47.294C38.6616 47.0874 38.6616 46.74 38.4458 46.5334C36.9852 45.0785 34.9519 45.7563 33.6573 47.1699C33.4581 47.3931 33.4747 47.732 33.6905 47.9304C33.9229 48.1288 34.2629 48.1124 34.462 47.8892Z" fill="#4A2C37"/>
<path fill-rule="evenodd" clip-rule="evenodd" d="M28.5533 56.3376C28.3624 56.3624 28.1629 56.2797 28.0467 56.1061C27.8808 55.8581 27.9471 55.5276 28.1878 55.3622C28.3122 55.2796 28.5032 55.2216 28.7356 55.2712C28.9348 55.3125 29.3995 55.5439 29.4824 55.5852C29.8393 55.6514 30.0967 55.5935 30.412 55.4117C30.6693 55.2629 31.0014 55.3538 31.1507 55.6101C31.3001 55.8663 31.2086 56.1971 30.9514 56.3459C30.3787 56.6766 29.9142 56.7591 29.2502 56.6351C29.1839 56.6186 29.0678 56.5856 28.935 56.5195C28.8354 56.4699 28.6363 56.379 28.5533 56.3376Z" fill="#4A2C37"/>
<path fill-rule="evenodd" clip-rule="evenodd" d="M27.3 60.6031C27.7232 60.9172 28.6776 61.099 29.1839 61.2065C31.5823 61.7108 34.3542 61.157 36.0637 59.4624C36.2712 59.2557 36.2712 58.9084 36.0637 58.7017C35.8563 58.4951 35.5078 58.4951 35.3003 58.7017C33.8397 60.1566 31.4659 60.5865 29.4161 60.1566C29.0177 60.074 28.2791 59.983 27.9471 59.7433C27.7065 59.5614 27.3665 59.6194 27.1922 59.8592C27.0096 60.0906 27.0593 60.4295 27.3 60.6031Z" fill="#4A2C37"/>
<path fill-rule="evenodd" clip-rule="evenodd" d="M22.6444 65.7199C22.4204 67.1087 21.8476 68.82 22.08 70.2253C22.2874 71.4818 23.1587 72.6555 23.5902 73.8294C23.972 74.871 23.9059 76.3425 23.9059 77.442C23.9059 77.7395 24.1465 77.9792 24.4453 77.9792C24.744 77.9792 24.9846 77.7395 24.9846 77.442C24.9846 76.2268 25.0344 74.6065 24.6029 73.4574C24.1879 72.3415 23.3416 71.2419 23.1425 70.0515C22.9267 68.7537 23.5074 67.1832 23.7065 65.8936C23.7563 65.5961 23.5488 65.3233 23.2584 65.2737C22.9762 65.2241 22.6942 65.4223 22.6444 65.7199Z" fill="#4A2C37"/>
<path fill-rule="evenodd" clip-rule="evenodd" d="M13.6067 69.002C12.8764 71.3662 13.0093 73.7139 13.1005 76.1773C13.1586 77.7479 13.1006 79.5996 13.7728 81.0793C14.0799 81.7571 14.586 82.3274 15.1255 82.873C15.5985 83.3525 16.0963 83.8155 16.4449 84.3611C18.0051 86.7666 17.9555 89.6764 17.9555 92.4457C17.9555 93.1897 17.9636 93.9254 17.9636 94.6694C17.9636 95.0827 17.831 95.4631 17.7148 95.8434C17.5571 96.3311 17.4077 96.8187 17.4077 97.3312C17.4077 99.249 18.7686 101.184 20.835 100.77C21.1255 100.712 21.3166 100.423 21.2585 100.134C21.2004 99.8443 20.9099 99.6542 20.6195 99.712C19.2667 99.9848 18.4949 98.5877 18.4949 97.3312C18.4949 96.9261 18.6275 96.5459 18.7437 96.1657C18.9014 95.6779 19.0508 95.1902 19.0508 94.6611C19.0508 93.9171 19.0423 93.1814 19.0423 92.4375C19.0423 89.4698 19.0425 86.3533 17.3578 83.7659C16.9678 83.1624 16.4202 82.6416 15.8974 82.1126C15.4493 81.6579 15.0091 81.195 14.7518 80.6246C14.1377 79.2689 14.229 77.566 14.1793 76.1276C14.0963 73.7882 13.9471 71.5562 14.6359 69.3077C14.7272 69.0267 14.5611 68.7208 14.2789 68.6298C14.0051 68.5554 13.698 68.7127 13.6067 69.002Z" fill="#4A2C37"/>
<path fill-rule="evenodd" clip-rule="evenodd" d="M24.8766 66.53C24.8434 66.5879 24.8018 66.6788 24.7769 66.7367C24.7022 66.9103 24.636 67.0839 24.5945 67.1666C24.2543 67.8444 24.1214 68.82 24.2874 69.5722C24.3538 69.8616 24.171 70.1509 23.8805 70.2171C23.5901 70.2832 23.2998 70.1013 23.2334 69.812C23.0093 68.8366 23.1834 67.5718 23.6232 66.6872C23.7145 66.5054 23.9303 65.9431 24.1212 65.7447C24.3204 65.5381 24.5445 65.4885 24.727 65.5215C25.0175 65.5711 25.2169 65.8522 25.1671 66.1498C25.1339 66.3234 25.0176 66.4639 24.8766 66.53Z" fill="#4A2C37"/>
<path fill-rule="evenodd" clip-rule="evenodd" d="M27.0341 68.1587C27.0258 68.5638 26.6939 69.192 26.6026 69.564C26.3536 70.556 26.4364 71.5975 26.4364 72.606C26.4364 72.9036 26.677 73.1433 26.9758 73.1433C27.2746 73.1433 27.5155 72.9036 27.5155 72.606C27.5155 71.6884 27.424 70.7296 27.6481 69.8286C27.7559 69.3987 28.1045 68.6628 28.1128 68.1916C28.1211 67.894 27.8804 67.6461 27.5816 67.6378C27.2828 67.6213 27.0424 67.8611 27.0341 68.1587Z" fill="#4A2C37"/>
<path fill-rule="evenodd" clip-rule="evenodd" d="M24.2788 73.3997C25.034 74.0032 25.9551 74.4166 26.9095 74.524C27.2083 74.5571 27.474 74.3421 27.5072 74.0445C27.5404 73.7469 27.3246 73.4824 27.0258 73.4494C26.2706 73.3667 25.5403 73.036 24.9511 72.5565C24.7187 72.3664 24.3785 72.4078 24.1876 72.6393C24.0133 72.8707 24.0464 73.2096 24.2788 73.3997Z" fill="#4A2C37"/>
<path fill-rule="evenodd" clip-rule="evenodd" d="M28.1047 74.6645C29.5571 72.0357 31.9305 70.8619 34.5032 69.531C37.9307 67.7454 41.1008 65.3811 44.5532 63.6617C45.7233 63.0748 47.0181 62.7606 48.0555 61.9836C48.2962 61.8017 48.3459 61.4628 48.1633 61.2314C47.9807 60.9916 47.6403 60.9421 47.408 61.124C46.4204 61.8597 45.1838 62.149 44.0717 62.7028C40.6194 64.4223 37.441 66.7949 34.0052 68.5804C31.2416 70.0188 28.7187 71.3249 27.1585 74.1521C27.0092 74.4083 27.1087 74.7389 27.366 74.8877C27.6316 75.02 27.9637 74.9207 28.1047 74.6645Z" fill="#4A2C37"/>
<path fill-rule="evenodd" clip-rule="evenodd" d="M31.0095 69.63C32.8353 70.0598 33.8808 69.4316 35.4078 68.4645C37.773 66.9682 39.5074 64.7115 41.1174 62.4712C41.5406 61.8843 41.8643 60.9337 42.3622 60.4377C42.5697 60.231 42.5697 59.8839 42.3622 59.6772C42.1465 59.4623 41.8063 59.4623 41.5988 59.6772C41.0677 60.2063 40.6941 61.2147 40.2377 61.843C38.7106 63.9675 37.0757 66.1252 34.8267 67.547C33.5819 68.3406 32.7438 68.9275 31.2583 68.572C30.9679 68.5059 30.6774 68.6795 30.6027 68.9688C30.528 69.2581 30.719 69.5556 31.0095 69.63Z" fill="#4A2C37"/>
<path fill-rule="evenodd" clip-rule="evenodd" d="M12.9261 71.6224C10.9509 71.8125 9.09997 72.7796 7.42357 73.846C5.03347 75.3588 2.80114 76.4664 1.29903 78.9629C-0.0786006 81.2528 0.070781 85.0967 0.469132 87.6097C1.47331 93.9584 2.82623 100.654 5.23294 106.648C6.12923 108.879 6.79309 111.178 7.67279 113.41C8.85124 116.402 10.5192 119.312 12.0545 122.131C13.3574 124.536 14.8512 127.702 16.7765 130.331C18.1044 132.142 19.64 133.687 21.4492 134.588C21.7147 134.721 22.0466 134.613 22.1794 134.349C22.3122 134.084 22.2042 133.754 21.9387 133.621C20.2789 132.795 18.8847 131.356 17.6648 129.695C15.7726 127.116 14.3117 123.982 13.0254 121.618C11.515 118.841 9.8718 115.964 8.70165 113.013C7.82196 110.781 7.15809 108.474 6.2618 106.251C3.87999 100.332 2.56073 93.7187 1.56486 87.4444C1.1997 85.1463 0.992097 81.6166 2.26184 79.5252C3.67266 77.1858 5.79717 76.1773 8.03789 74.7637C9.5732 73.7882 11.2579 72.8789 13.0671 72.7053C13.3659 72.6805 13.5815 72.4076 13.5566 72.1182C13.4902 71.8124 13.2249 71.5893 12.9261 71.6224Z" fill="#4A2C37"/>
<path fill-rule="evenodd" clip-rule="evenodd" d="M0.435688 78.0042C0.219914 78.4753 0.12882 78.9962 0.0126346 79.5004C-0.0537571 79.7898 0.12882 80.0791 0.427583 80.1453C0.718047 80.2114 1.00833 80.0295 1.07472 79.7319C1.17431 79.3021 1.24064 78.8556 1.42322 78.4506C1.5477 78.1778 1.43166 77.8553 1.1578 77.7313C0.883929 77.6156 0.560172 77.7314 0.435688 78.0042Z" fill="#4A2C37"/>
<path fill-rule="evenodd" clip-rule="evenodd" d="M6.35314 109.88C5.99628 120.635 9.92153 131.993 9.92153 142.764C9.92153 143.062 10.1621 143.301 10.4609 143.301C10.7596 143.301 11.0002 143.062 11.0002 142.764C11.0002 132.009 7.07499 120.659 7.43184 109.921C7.44014 109.624 7.20787 109.375 6.9091 109.367C6.61034 109.351 6.36144 109.582 6.35314 109.88Z" fill="#4A2C37"/>
<path fill-rule="evenodd" clip-rule="evenodd" d="M27.4661 75.8465C27.4578 75.8547 27.3994 75.9127 27.3745 75.9458C27.3247 76.0202 27.275 76.1111 27.2335 76.2021C27.0177 76.6485 26.8601 77.2106 26.7439 77.4586C25.8311 79.3764 25.3331 81.3604 24.8767 83.427C23.7646 88.4117 23.7811 93.1483 24.5031 98.2075C24.8848 100.861 26.0385 103.721 26.0385 106.416C26.0385 106.714 25.7979 106.953 25.4991 106.953C25.2003 106.953 24.9598 106.714 24.9598 106.416C24.9598 103.771 23.8144 100.968 23.441 98.3645C22.6941 93.1814 22.6855 88.3125 23.8308 83.2038C24.3121 81.0628 24.827 79.0044 25.773 77.0122C25.9224 76.7063 26.1214 75.9705 26.4036 75.4911C26.5944 75.1687 26.8354 74.9455 27.0843 74.8463C27.3665 74.7388 27.6817 74.8794 27.7813 75.1605C27.8643 75.4333 27.7316 75.739 27.4661 75.8465Z" fill="#4A2C37"/>
<path fill-rule="evenodd" clip-rule="evenodd" d="M19.9634 100.431C20.0547 101.539 19.6066 102.605 19.3742 103.556C19.1501 104.465 19.1001 105.284 19.5233 105.986C19.93 106.648 20.7932 107.243 22.5443 107.631C22.8347 107.698 23.125 107.516 23.1914 107.226C23.2578 106.937 23.0754 106.648 22.785 106.582C21.4654 106.292 20.76 105.928 20.4529 105.432C20.1708 104.969 20.2788 104.432 20.4282 103.829C20.6938 102.771 21.1502 101.58 21.0506 100.357C21.0257 100.059 20.7602 99.836 20.4614 99.8608C20.1627 99.869 19.9385 100.134 19.9634 100.431Z" fill="#4A2C37"/>
<path fill-rule="evenodd" clip-rule="evenodd" d="M47.9809 92.2141C47.956 92.0653 48.0057 91.9084 48.0887 91.7348C48.1966 91.4868 48.3792 91.2387 48.5867 90.9907C49.2921 90.1392 50.3378 89.3208 50.8357 88.8578C52.1469 87.6427 53.3589 86.5433 55.251 86.7169C55.6162 86.75 55.9648 86.9648 56.305 87.2211C56.9191 87.7005 57.4749 88.362 57.8898 88.8167C59.699 90.8006 61.6246 95.686 62.0811 98.4305C62.1972 99.1497 61.6744 99.9846 60.9938 100.662C60.2967 101.365 59.4171 101.919 58.7282 101.919C58.4295 101.919 58.1889 102.159 58.1889 102.456C58.1889 102.754 58.4295 102.994 58.7282 102.994C59.6411 102.994 60.8442 102.341 61.7654 101.415C62.7032 100.464 63.3176 99.2407 63.1517 98.2487C62.662 95.3389 60.6038 90.1805 58.695 88.0891C58.2469 87.5931 57.6412 86.8823 56.9773 86.3615C56.4627 85.9647 55.9065 85.6753 55.3588 85.6257C53.1181 85.4273 51.6574 86.6176 50.1055 88.0477C49.4914 88.6181 48.0971 89.7176 47.3917 90.7592C47.01 91.3296 46.8275 91.8999 46.9188 92.3877C46.9686 92.677 47.2589 92.8754 47.5493 92.8258C47.8398 92.7845 48.0307 92.5034 47.9809 92.2141Z" fill="#4A2C37"/>
<path fill-rule="evenodd" clip-rule="evenodd" d="M51.3752 93.5121C52.8026 91.5033 54.8275 89.8914 57.1512 89.0317C57.4334 88.9243 57.5744 88.6183 57.4665 88.3373C57.3669 88.0562 57.0517 87.9156 56.7695 88.023C54.2466 88.9654 52.0474 90.7098 50.4954 92.8921C50.3212 93.1401 50.379 93.4707 50.628 93.6443C50.8686 93.8096 51.2009 93.7518 51.3752 93.5121Z" fill="#4A2C37"/>
<path fill-rule="evenodd" clip-rule="evenodd" d="M55.1757 96.0829C56.6197 94.8512 58.097 93.727 59.4415 92.3878C59.6489 92.1811 59.6489 91.834 59.4415 91.6273C59.234 91.4124 58.8855 91.4124 58.678 91.6273C57.3585 92.9417 55.8978 94.0576 54.4787 95.2645C54.2546 95.4546 54.2216 95.802 54.4208 96.0252C54.6116 96.2484 54.9516 96.273 55.1757 96.0829Z" fill="#4A2C37"/>
<path fill-rule="evenodd" clip-rule="evenodd" d="M58.3542 99.8857C59.3169 99.3567 59.873 98.6209 60.512 97.7777C60.6946 97.538 60.6449 97.1991 60.4042 97.0255C60.1636 96.8437 59.8232 96.8932 59.6489 97.1329C59.1095 97.8438 58.6529 98.4888 57.8396 98.9434C57.574 99.0922 57.4827 99.4145 57.6321 99.6791C57.7815 99.9436 58.0969 100.035 58.3542 99.8857Z" fill="#4A2C37"/>
<path fill-rule="evenodd" clip-rule="evenodd" d="M56.3382 99.5302C56.1722 99.8195 56.1638 100.192 56.2717 100.58C56.3796 100.96 56.6037 101.365 56.7199 101.622C57.2261 102.696 57.8568 103.333 57.6908 104.622C57.558 105.664 57.0103 106.689 56.3049 107.664C55.1763 109.243 53.6574 110.698 52.645 111.955C52.4624 112.186 52.4957 112.525 52.728 112.715C52.9604 112.905 53.3006 112.864 53.4915 112.633C54.5122 111.359 56.0477 109.88 57.1847 108.293C57.998 107.16 58.612 105.97 58.7614 104.763C58.9523 103.233 58.2964 102.448 57.6989 101.175C57.6076 100.993 57.4583 100.72 57.3504 100.439C57.3172 100.357 57.2924 100.274 57.2758 100.192C57.2675 100.15 57.2509 100.109 57.2758 100.076C57.4169 99.8195 57.3256 99.4889 57.0684 99.3401C56.8194 99.1748 56.4875 99.2657 56.3382 99.5302Z" fill="#4A2C37"/>
<path fill-rule="evenodd" clip-rule="evenodd" d="M22.0219 113.881C23.3332 111.922 25.3664 110.458 26.9515 108.722C28.1465 107.416 29.3251 106.094 30.6115 104.887C33.9393 101.779 36.7607 98.4142 40.3044 95.6615C41.0845 95.058 42.3543 94.0164 43.6406 93.3799C44.3875 93.0079 45.1347 92.7516 45.7571 92.9087C45.9314 92.95 46.0889 93.0739 46.2466 93.1896C46.4956 93.3715 46.7363 93.5699 46.9853 93.6857C47.2509 93.8179 47.5827 93.7104 47.7155 93.4459C47.8483 93.1814 47.7404 92.8508 47.4748 92.7186C47.2342 92.5946 47.0019 92.3878 46.7612 92.2142C46.5289 92.0489 46.2796 91.9167 46.0306 91.8505C45.1924 91.6439 44.1719 91.9001 43.1677 92.4043C41.815 93.0739 40.4703 94.1735 39.6487 94.8017C36.0719 97.571 33.2255 100.96 29.8727 104.085C28.5615 105.308 27.3665 106.656 26.1548 107.979C24.5365 109.748 22.47 111.252 21.1256 113.261C20.9596 113.509 21.0261 113.84 21.2751 114.005C21.5158 114.195 21.856 114.129 22.0219 113.881Z" fill="#4A2C37"/>
<path fill-rule="evenodd" clip-rule="evenodd" d="M25.1672 107.342C25.1838 107.689 25.3082 108.02 25.3082 108.367C25.3082 108.665 25.5488 108.904 25.8476 108.904C26.1464 108.904 26.3869 108.665 26.3869 108.367C26.3869 108.003 26.2625 107.656 26.2459 107.292C26.2293 106.995 25.9802 106.763 25.6814 106.78C25.3827 106.788 25.1506 107.044 25.1672 107.342Z" fill="#4A2C37"/>
<path fill-rule="evenodd" clip-rule="evenodd" d="M62.6117 95.7771C63.8815 95.4217 65.3504 95.2729 66.5538 94.5951C68.1306 93.7106 69.4006 92.421 70.7782 91.2802C72.6538 89.7344 75.1434 88.4116 77.3675 87.4361C78.8033 86.8079 80.3965 86.5269 81.9235 86.2789C82.5542 86.1714 83.1766 86.2292 83.7907 86.2044C84.521 86.1796 85.2267 86.0639 85.9072 85.6175C86.1562 85.4522 86.2223 85.1216 86.0563 84.8736C85.8904 84.6256 85.5585 84.5594 85.3095 84.7247C84.8116 85.0554 84.2969 85.1215 83.7575 85.1297C83.1019 85.1545 82.4214 85.105 81.7492 85.2208C80.1309 85.4853 78.4464 85.7912 76.936 86.4607C74.6289 87.4693 72.0394 88.8581 70.0974 90.4618C68.7696 91.553 67.5497 92.8177 66.031 93.6691C64.8941 94.3057 63.5084 94.4214 62.3216 94.7604C62.0311 94.843 61.865 95.1407 61.948 95.43C62.0227 95.6863 62.3213 95.8515 62.6117 95.7771Z" fill="#4A2C37"/>
<path fill-rule="evenodd" clip-rule="evenodd" d="M74.2636 84.6257C74.5789 84.6505 74.994 84.5596 75.4339 84.4273C75.9567 84.262 76.5211 84.0304 76.9194 83.9561C78.7784 83.6089 80.6124 83.551 82.5046 83.551C83.7578 83.551 85.0773 83.4518 86.0151 84.3859C86.2225 84.5926 86.571 84.5926 86.7785 84.3859C86.986 84.1793 86.986 83.8321 86.7785 83.6255C85.6249 82.4764 84.0401 82.4763 82.4965 82.4763C80.5462 82.4763 78.6454 82.5425 76.72 82.8979C76.3549 82.964 75.8656 83.1459 75.3759 83.3112C74.9942 83.4435 74.6124 83.5675 74.3385 83.551C74.0398 83.5345 73.7824 83.7577 73.7575 84.0471C73.7409 84.3447 73.9648 84.6009 74.2636 84.6257Z" fill="#4A2C37"/>
<path fill-rule="evenodd" clip-rule="evenodd" d="M73.5831 81.691C77.2512 81.0627 81.0938 81.1454 84.7786 81.4926C85.2682 81.5422 86.1312 81.7737 86.7204 82.1374C86.8698 82.2284 86.9942 82.3276 87.0855 82.4351C87.1353 82.493 87.1767 82.5508 87.1767 82.617C87.185 82.7244 87.102 82.8318 86.9692 82.9641C86.7617 83.179 86.7617 83.5179 86.9692 83.7245C87.1767 83.9312 87.5252 83.9312 87.7327 83.7245C88.1476 83.3112 88.2724 82.9062 88.2558 82.5508C88.2392 82.187 88.048 81.8481 87.7327 81.5505C87.0355 80.9057 85.6082 80.4841 84.8779 80.4097C81.1018 80.0542 77.1597 79.9798 73.4003 80.6163C73.1098 80.6659 72.9108 80.947 72.9606 81.2363C73.0021 81.5422 73.2843 81.7406 73.5831 81.691Z" fill="#4A2C37"/>
<path fill-rule="evenodd" clip-rule="evenodd" d="M74.5207 77.3511C75.2593 77.3511 75.998 77.3429 76.7283 77.2685C79.6413 76.9957 82.7866 77.3015 85.6663 77.814C86.7203 78.0042 87.7827 78.3762 88.4798 79.2524C88.5462 79.3351 88.7368 79.6905 88.853 80.0377C88.9443 80.3187 88.9859 80.5999 88.9527 80.7652C88.9195 80.9636 88.8199 81.1123 88.6954 81.2032C88.5958 81.2776 88.4715 81.3273 88.3056 81.3273C88.0068 81.3273 87.7658 81.0875 87.7658 80.7899C87.7658 80.6907 87.7991 80.5916 87.8489 80.5089L87.6248 79.9138C87.0936 79.269 86.2722 79.021 85.4755 78.8805C82.687 78.3927 79.6497 78.0868 76.828 78.3513C76.0479 78.4257 75.2761 78.434 74.496 78.434L73.9315 78.4175C73.8319 78.5001 73.7075 78.5497 73.5664 78.5497C73.2676 78.5414 73.0268 78.3017 73.0351 78.0042C73.0434 77.7562 73.1679 77.5247 73.4833 77.409C73.7406 77.3098 74.4045 77.3428 74.5207 77.3511ZM88.2804 80.2443H88.3056C88.2973 80.2443 88.2887 80.2443 88.2804 80.2443ZM74.1308 78.0372C74.1308 78.029 74.1308 78.0207 74.1308 78.0124V78.0372Z" fill="#4A2C37"/>
<path fill-rule="evenodd" clip-rule="evenodd" d="M57.5245 86.8908C58.537 85.0225 61.0184 83.4849 62.7114 82.3028C64.894 80.7735 66.886 78.9797 69.1516 77.5661C72.8364 75.268 77.3592 75.45 81.4505 76.194C83.6332 76.5907 86.1229 77.004 87.5005 78.8392C87.6831 79.0789 88.0235 79.1284 88.2559 78.9466C88.4965 78.7647 88.5462 78.4258 88.3637 78.1944C86.8283 76.1526 84.0896 75.5822 81.6414 75.1358C77.2927 74.3422 72.4876 74.2098 68.5705 76.6567C66.28 78.0786 64.2718 79.8807 62.0809 81.4182C60.2634 82.6913 57.6576 84.3777 56.5621 86.3782C56.4211 86.6427 56.5205 86.9735 56.7777 87.114C57.035 87.2545 57.3752 87.1553 57.5245 86.8908Z" fill="#4A2C37"/>
<path fill-rule="evenodd" clip-rule="evenodd" d="M82.5295 65.7862C82.0814 65.7449 81.7661 65.5712 81.5752 65.2984C81.2848 64.8686 81.318 64.2569 81.6085 63.7279C82.7205 61.7026 84.7042 59.95 86.1648 58.1397C86.3557 57.9082 86.3141 57.5694 86.0817 57.3792C85.8493 57.1974 85.5092 57.2303 85.3183 57.4618C83.8245 59.3217 81.7994 61.1323 80.6542 63.2154C80.1562 64.1248 80.1726 65.1744 80.6789 65.9101C81.0274 66.4144 81.6001 66.7865 82.4217 66.8692C82.7205 66.894 82.986 66.679 83.0109 66.3814C83.0358 66.0838 82.8283 65.811 82.5295 65.7862Z" fill="#4A2C37"/>
<path fill-rule="evenodd" clip-rule="evenodd" d="M73.8738 51.0636C73.8323 51.3198 73.6083 51.5183 73.3344 51.5183C73.0357 51.5183 72.7947 51.2786 72.7947 50.981C72.7947 50.7165 72.9938 50.3527 73.3839 50.0385C73.9648 49.5673 74.9773 49.0797 75.2844 48.9392C76.0064 48.6168 76.6454 47.9967 77.3425 47.6082C78.9857 46.6989 80.6871 46.2278 82.4382 45.6161C88.9778 43.3345 95.5508 42.4417 102.173 44.7398C105.634 45.9384 108.447 47.0708 109.493 50.8404C110.348 53.8907 110.016 57.7431 108.348 60.5123C107.933 61.1985 107.269 61.6614 106.854 62.3392C104.787 65.6872 102.821 68.3406 100.065 71.0768C98.2396 72.8954 96.1234 73.9288 94.0653 73.7965C92.6627 73.6973 91.2767 73.0691 90.0069 71.7464C89.8576 71.5893 89.7581 71.5482 89.6751 71.482C89.5174 71.3663 89.368 71.234 89.2103 70.8372C89.0941 70.5644 89.2268 70.2419 89.5089 70.1345C89.7828 70.0187 90.1065 70.1511 90.2144 70.4322C90.2891 70.614 90.3472 70.6304 90.4385 70.6965C90.5381 70.7627 90.6461 70.8537 90.7955 71.0025C91.8412 72.102 92.978 72.6393 94.1398 72.722C95.9241 72.8377 97.7252 71.887 99.302 70.3163C101.991 67.638 103.916 65.0422 105.933 61.7769C106.348 61.1074 107.012 60.6445 107.418 59.9583C108.937 57.4288 109.219 53.9156 108.447 51.1298C107.501 47.757 104.912 46.8312 101.808 45.7565C95.4176 43.5411 89.0856 44.4339 82.7867 46.6328C81.0937 47.228 79.4422 47.6743 77.8571 48.5505C77.1268 48.9556 76.4628 49.5922 75.7159 49.9229C75.4836 50.0221 74.7948 50.3527 74.2802 50.7082C74.1225 50.8239 73.9236 51.0222 73.8738 51.0636Z" fill="#4A2C37"/>
<path fill-rule="evenodd" clip-rule="evenodd" d="M93.434 74.1354C93.4091 74.1519 93.2846 74.2346 93.21 74.3007C92.9195 74.5735 92.5878 74.9951 92.2309 75.4002C91.8243 75.8714 91.3842 76.326 90.9444 76.5823C90.5543 76.8137 90.156 76.9047 89.766 76.8303C86.4132 76.1607 82.7864 74.4411 80.056 72.3414C79.6245 72.0108 78.3714 71.1428 77.8402 70.2914C77.5166 69.7706 77.4336 69.2416 77.666 68.7704C78.2884 67.5305 79.2596 66.5716 80.3717 65.6705C80.604 65.4804 80.9442 65.5216 81.1351 65.7448C81.326 65.9762 81.2842 66.3153 81.0601 66.5054C80.0726 67.3073 79.1929 68.1503 78.6369 69.2498C78.5871 69.349 78.6289 69.4565 78.6787 69.564C78.745 69.7045 78.8447 69.8533 78.9692 69.9939C79.5169 70.6387 80.3882 71.2256 80.7202 71.4819C83.3343 73.4824 86.7781 75.1274 89.9815 75.7722C90.2305 75.8218 90.4632 75.6315 90.7122 75.4248C91.0856 75.1107 91.4423 74.6727 91.7743 74.2759C92.1394 73.846 92.4881 73.4575 92.7869 73.2674C93.0027 73.1269 93.2182 73.0607 93.4008 73.0607C93.6996 73.0607 93.9402 73.3004 93.9402 73.598C93.9402 73.879 93.7162 74.1106 93.434 74.1354Z" fill="#4A2C37"/>
<path fill-rule="evenodd" clip-rule="evenodd" d="M78.2972 70.7544C78.2723 70.7792 78.1645 70.8701 78.1064 70.9363C77.9404 71.1347 77.7991 71.3661 77.6995 71.4901C76.8115 72.6226 75.8323 73.7635 74.8115 74.7803C74.604 74.987 74.2555 74.987 74.0481 74.7803C73.8406 74.5737 73.8406 74.2263 74.0481 74.0197C75.0356 73.036 75.9899 71.9284 76.853 70.8289C77.019 70.6222 77.2845 70.1923 77.5666 69.9526C77.7824 69.7707 78.0231 69.6715 78.2555 69.6715C78.5543 69.6715 78.7951 69.9113 78.8034 70.2089C78.7951 70.4982 78.5794 70.7296 78.2972 70.7544Z" fill="#4A2C37"/>
<path fill-rule="evenodd" clip-rule="evenodd" d="M87.8411 75.8548C87.6171 76.2351 87.4842 76.9543 87.3265 77.409C87.2352 77.6901 87.3845 77.996 87.675 78.0952C87.9572 78.1861 88.2643 78.0372 88.3639 77.7561C88.4967 77.3676 88.5879 76.7395 88.7788 76.4171C88.9282 76.1608 88.8452 75.83 88.588 75.673C88.3224 75.5159 87.9905 75.5985 87.8411 75.8548Z" fill="#4A2C37"/>
<path fill-rule="evenodd" clip-rule="evenodd" d="M67.1847 94.5951L67.1762 94.6199C67.1181 94.9589 66.8694 96.7526 67.1847 98.2737C67.4586 99.5798 67.8236 101.555 68.6784 103.019C69.1846 103.887 69.8571 104.573 70.8281 104.73C71.1269 104.779 71.3261 105.061 71.2763 105.35C71.2265 105.647 70.9443 105.846 70.6538 105.796C69.3509 105.581 68.4129 104.713 67.7407 103.564C66.8278 102.002 66.421 99.9022 66.1222 98.4969C65.7737 96.8105 66.0396 94.8264 66.106 94.4462C66.1973 93.8923 66.8113 93.9586 66.8196 93.9586C67.0935 94.0495 67.2511 94.3306 67.1847 94.5951ZM66.944 94.934C66.8112 95.0166 66.6454 95.0415 66.4877 94.9919C66.6288 95.0332 66.7863 95.0332 66.944 94.934ZM67.1515 94.6942C67.11 94.7934 67.0436 94.8678 66.9606 94.9257L66.9687 94.9174C67.0019 94.8926 67.0934 94.8347 67.1515 94.6942ZM67.1596 94.6776L67.1515 94.6942L67.1596 94.6776Z" fill="#4A2C37"/>
<path fill-rule="evenodd" clip-rule="evenodd" d="M69.2925 93.6277C69.2012 97.1493 68.8276 100.77 70.2468 104.068C70.4211 104.473 70.4793 104.878 70.5872 105.25C70.7365 105.755 70.9773 106.201 71.5001 106.548C71.7491 106.714 72.0893 106.648 72.247 106.4C72.4129 106.152 72.3464 105.813 72.0974 105.656C71.7406 105.416 71.6494 105.085 71.5581 104.73C71.4668 104.383 71.392 104.011 71.2343 103.647C69.8733 100.489 70.2801 97.0336 70.3631 93.6608C70.3714 93.3632 70.1306 93.1153 69.8318 93.107C69.5497 93.0988 69.3008 93.3301 69.2925 93.6277Z" fill="#4A2C37"/>
<path fill-rule="evenodd" clip-rule="evenodd" d="M72.2885 92.5202C72.388 93.2972 72.0809 94.2808 72.0311 95.0496C71.8818 97.4882 71.8403 100.051 72.0311 102.489C72.0726 103.01 72.0312 103.92 72.1308 104.705C72.2138 105.358 72.4213 105.937 72.7533 106.267C72.969 106.474 73.3092 106.474 73.5167 106.267C73.7242 106.061 73.7242 105.713 73.5167 105.507C73.3175 105.308 73.2595 104.953 73.2014 104.564C73.1018 103.796 73.1517 102.911 73.1103 102.407C72.9277 100.018 72.9609 97.5048 73.1103 95.1158C73.16 94.2808 73.4669 93.2144 73.3591 92.3795C73.3176 92.0819 73.0437 91.8754 72.7533 91.9167C72.4628 91.9581 72.2553 92.2308 72.2885 92.5202Z" fill="#4A2C37"/>
<path fill-rule="evenodd" clip-rule="evenodd" d="M75.6413 92.6525C75.3342 96.67 74.1476 101.44 75.1518 105.457C75.2265 105.747 75.517 105.92 75.8074 105.854C76.0979 105.78 76.2722 105.49 76.2058 105.201C75.2265 101.291 76.4215 96.6536 76.7285 92.7352C76.7534 92.4377 76.5293 92.1812 76.2305 92.1564C75.9317 92.1316 75.6662 92.3549 75.6413 92.6525Z" fill="#4A2C37"/>
<path fill-rule="evenodd" clip-rule="evenodd" d="M75.5916 105.813C75.6995 105.705 75.9486 105.441 76.1063 105.217C76.7204 104.308 77.3427 102.953 77.4091 102.68C78.8365 96.9758 79.9239 91.5364 82.397 86.1136C82.5214 85.8408 82.845 85.725 83.1106 85.849C83.3844 85.973 83.5088 86.2955 83.376 86.56C80.9278 91.9167 79.8741 97.2981 78.4549 102.936C78.3969 103.184 77.9485 104.226 77.4091 105.16C77.0273 105.813 76.6043 106.416 76.2392 106.689C75.7661 107.053 75.3346 107.02 75.011 106.697C74.7952 106.49 74.7952 106.143 75.011 105.937C75.1686 105.78 75.4008 105.738 75.5916 105.813Z" fill="#4A2C37"/>
<path fill-rule="evenodd" clip-rule="evenodd" d="M72.0394 106.524C72.0145 107.185 72.446 107.598 73.0933 107.755C73.8071 107.929 74.7861 107.73 75.1596 107.449C75.4002 107.267 75.4499 106.937 75.2674 106.697C75.0848 106.457 74.7531 106.408 74.5124 106.59C74.3796 106.689 74.0891 106.739 73.8069 106.747C73.6244 106.755 73.4419 106.738 73.2842 106.689C73.2095 106.664 73.1266 106.648 73.1266 106.565C73.1349 106.267 72.9022 106.019 72.6034 106.003C72.3047 105.994 72.056 106.226 72.0394 106.524Z" fill="#4A2C37"/>
<path fill-rule="evenodd" clip-rule="evenodd" d="M94.8616 88.8335C95.1935 93.7024 95.1768 98.7284 95.1768 103.622C95.1768 103.92 95.4174 104.159 95.7162 104.159C96.0149 104.159 96.2555 103.92 96.2555 103.622C96.2555 98.7036 96.2639 93.6528 95.9403 88.759C95.9237 88.4614 95.6584 88.2381 95.3596 88.2546C95.0691 88.2794 94.8367 88.5359 94.8616 88.8335Z" fill="#4A2C37"/>
<path fill-rule="evenodd" clip-rule="evenodd" d="M108.812 60.1733C109.169 60.2725 109.426 60.6031 109.634 60.9834C110.04 61.7108 110.256 62.6614 110.397 63.2318C111.177 66.4888 111.401 69.7873 112.04 73.0691C113.053 78.2688 112.92 83.7164 113.103 88.9904C113.377 96.5956 114.422 104.168 114.68 111.781C114.787 114.98 115.377 118.667 114.215 121.717C114.032 122.197 113.85 122.743 113.576 123.214C113.352 123.602 113.078 123.95 112.655 124.123C112.372 124.231 112.24 124.545 112.356 124.826C112.464 125.107 112.779 125.239 113.061 125.123C113.717 124.859 114.181 124.346 114.53 123.743C114.829 123.222 115.028 122.627 115.236 122.098C116.447 118.924 115.883 115.08 115.775 111.74C115.518 104.126 114.472 96.5543 114.198 88.9491C114.007 83.6254 114.132 78.1117 113.111 72.8625C112.472 69.5724 112.24 66.2575 111.46 62.984C111.302 62.3392 111.044 61.281 110.588 60.4544C110.223 59.8013 109.725 59.297 109.102 59.1234C108.812 59.0407 108.513 59.2143 108.439 59.5036C108.356 59.793 108.522 60.0906 108.812 60.1733Z" fill="#4A2C37"/>
<path fill-rule="evenodd" clip-rule="evenodd" d="M75.9396 57.2139C77.9895 57.2304 80.0727 57.4121 82.1225 57.2881C82.6537 57.2551 83.1681 57.1393 83.6826 57.0649C84.0976 57.0071 84.5127 56.9823 84.936 57.1228C85.2181 57.2138 85.5249 57.0651 85.6245 56.784C85.7157 56.5029 85.5666 56.197 85.2845 56.0978C84.6869 55.8994 84.1144 55.9158 83.5335 55.9985C83.0522 56.0646 82.5708 56.1886 82.0646 56.2134C80.0396 56.3292 77.9812 56.1474 75.9562 56.1392C75.6575 56.1392 75.4088 56.3788 75.4088 56.6764C75.4005 56.9658 75.6409 57.2139 75.9396 57.2139Z" fill="#4A2C37"/>
<path fill-rule="evenodd" clip-rule="evenodd" d="M80.9028 110.467C80.9443 110.359 81.0524 110.103 81.1022 109.946C81.1852 109.723 81.268 109.533 81.3344 109.442C82.0398 108.508 82.9028 107.888 83.9651 107.309C85.4755 106.482 87.2103 106.094 88.812 105.49C90.1979 104.97 92.5049 104.011 94.6792 103.407C96.1979 102.986 97.6584 102.738 98.7124 102.895C99.0029 102.936 99.2106 103.209 99.1691 103.506C99.1276 103.804 98.8535 104.002 98.5548 103.961C97.6087 103.829 96.314 104.068 94.9612 104.449C92.8201 105.044 90.5462 105.986 89.1852 106.499C87.625 107.077 85.9406 107.458 84.4716 108.251C83.5587 108.747 82.8033 109.276 82.1975 110.07C82.1809 110.12 81.932 110.847 81.7992 111.07C81.6249 111.351 81.3926 111.426 81.2266 111.426C80.9278 111.426 80.6873 111.186 80.6873 110.888C80.6956 110.723 80.7784 110.566 80.9028 110.467Z" fill="#4A2C37"/>
<path fill-rule="evenodd" clip-rule="evenodd" d="M81.5421 126.314C82.7952 127.504 84.1813 127.934 85.6834 128.066C87.0777 128.19 88.5714 128.033 90.1316 128.033C95.4595 128.033 100.688 127.454 105.941 126.702C108.124 126.388 110.854 126.198 112.78 125.041C113.037 124.892 113.12 124.553 112.962 124.297C112.813 124.04 112.472 123.958 112.215 124.115C110.406 125.198 107.825 125.338 105.775 125.628C100.572 126.372 95.3931 126.942 90.115 126.942C88.588 126.942 87.1273 127.099 85.758 126.975C84.4966 126.867 83.3184 126.52 82.2727 125.52C82.0569 125.313 81.7163 125.322 81.5088 125.537C81.318 125.768 81.3263 126.107 81.5421 126.314Z" fill="#4A2C37"/>
<path fill-rule="evenodd" clip-rule="evenodd" d="M100.779 126.909C100.372 128.951 100.953 131.042 101.227 133.059C101.277 133.431 101.227 133.861 101.252 134.274C101.268 134.638 101.327 134.977 101.484 135.283C101.617 135.547 101.941 135.655 102.215 135.523C102.48 135.39 102.588 135.068 102.455 134.795C102.347 134.572 102.339 134.299 102.339 134.035C102.339 133.654 102.356 133.266 102.314 132.919C102.057 131.017 101.476 129.05 101.858 127.124C101.916 126.826 101.725 126.545 101.435 126.487C101.119 126.421 100.837 126.611 100.779 126.909Z" fill="#4A2C37"/>
<path fill-rule="evenodd" clip-rule="evenodd" d="M80.6126 112.004C80.4798 112.699 80.5625 113.492 80.7617 114.311C81.019 115.402 81.4589 116.535 81.6415 117.477C82.1311 120.04 81.6333 122.396 81.6333 124.917C81.6333 125.214 81.8739 125.454 82.1727 125.454C82.4715 125.454 82.7121 125.214 82.7121 124.917C82.7121 122.329 83.2102 119.907 82.7039 117.279C82.5463 116.477 82.2142 115.534 81.9486 114.6C81.7162 113.765 81.5336 112.93 81.6747 112.219C81.7328 111.93 81.5419 111.641 81.2431 111.583C80.9527 111.525 80.6707 111.715 80.6126 112.004Z" fill="#4A2C37"/>
<path fill-rule="evenodd" clip-rule="evenodd" d="M80.5959 110.103C80.4963 110.086 80.3549 110.062 80.247 110.053C79.4503 110.004 78.3384 110.086 78.1641 110.103C77.2762 110.177 75.749 110.285 74.5042 110.698C73.7905 110.938 73.1681 111.252 72.8942 111.789C72.4129 112.748 72.5624 113.864 72.8363 114.988C73.1433 116.253 73.6329 117.518 73.8072 118.601C74.0064 119.816 73.9733 122.164 74.3384 124.106C74.4546 124.702 74.6041 125.264 74.8198 125.727C75.0024 126.123 75.2345 126.438 75.5415 126.628C75.8735 126.826 76.3133 126.876 76.7698 126.876C77.5914 126.876 78.4711 126.71 79.1018 126.619C79.8487 126.512 80.6952 126.338 81.3342 125.908C81.5832 125.743 81.9238 125.809 82.0814 126.057C82.2474 126.305 82.1809 126.644 81.9319 126.801C81.1601 127.314 80.1476 127.554 79.2514 127.686C78.5874 127.777 77.6331 127.959 76.7617 127.95C76.0894 127.95 75.4588 127.835 74.9775 127.545C74.0812 127.008 73.5417 125.768 73.2678 124.296C72.9027 122.346 72.9358 119.99 72.7366 118.775C72.5208 117.493 71.8653 115.947 71.608 114.451C71.4172 113.335 71.4422 112.252 71.9152 111.302C72.2969 110.541 73.1351 110.004 74.1476 109.665C75.4837 109.218 77.1184 109.094 78.0645 109.02C78.2387 109.003 79.3012 108.921 80.1311 108.962C80.5543 108.979 80.9193 109.036 81.1433 109.127C81.4255 109.235 81.5667 109.425 81.6248 109.599C81.6745 109.764 81.6745 109.954 81.5583 110.169C81.4089 110.425 81.0772 110.516 80.82 110.359C80.7204 110.301 80.6374 110.21 80.5959 110.103Z" fill="#4A2C37"/>
<path fill-rule="evenodd" clip-rule="evenodd" d="M73.4423 114.583C75.5586 113.715 78.0151 112.682 80.289 113.327C80.5795 113.41 80.8783 113.244 80.9613 112.955C81.0442 112.666 80.8781 112.368 80.5876 112.285C78.0813 111.574 75.3594 112.624 73.0274 113.583C72.7535 113.699 72.6207 114.013 72.7368 114.286C72.853 114.567 73.1685 114.699 73.4423 114.583Z" fill="#4A2C37"/>
<path fill-rule="evenodd" clip-rule="evenodd" d="M74.3053 118.336C76.3966 118.626 78.82 117.774 80.9777 117.774C81.2764 117.774 81.517 117.535 81.517 117.237C81.517 116.939 81.2764 116.7 80.9777 116.7C79.8822 116.7 78.7201 116.915 77.5665 117.096C76.4959 117.262 75.4339 117.402 74.4463 117.27C74.1475 117.229 73.8737 117.435 73.8405 117.733C73.799 118.022 74.0065 118.295 74.3053 118.336Z" fill="#4A2C37"/>
<path fill-rule="evenodd" clip-rule="evenodd" d="M75.16 122.346C77.2264 122.246 79.2928 122.313 81.2845 121.651C81.5667 121.552 81.7245 121.255 81.6249 120.965C81.5336 120.684 81.2265 120.527 80.9361 120.626C79.0439 121.255 77.077 121.172 75.1102 121.263C74.8114 121.279 74.5793 121.527 74.5959 121.825C74.6042 122.131 74.8612 122.362 75.16 122.346Z" fill="#4A2C37"/>
<path fill-rule="evenodd" clip-rule="evenodd" d="M75.5912 124.545C75.7156 124.561 77.251 124.76 77.3174 124.768C78.8776 124.933 79.6326 124.528 80.8526 123.619C81.0933 123.437 81.4336 123.487 81.6079 123.726C81.7905 123.966 81.7408 124.305 81.5001 124.479C80.0146 125.586 79.0933 126.041 77.2011 125.842C77.1347 125.834 75.9898 125.768 75.4254 125.619C75.1599 125.553 74.9687 125.437 74.8857 125.355C74.6782 125.14 74.6867 124.801 74.8942 124.594C75.0934 124.412 75.3837 124.396 75.5912 124.545Z" fill="#4A2C37"/>
<path fill-rule="evenodd" clip-rule="evenodd" d="M71.7573 112.26C66.2883 112.36 60.4212 112.194 55.0435 113.269C48.8691 114.501 42.1798 119.213 36.9349 122.536C36.6859 122.693 36.6115 123.032 36.7691 123.28C36.9268 123.528 37.267 123.602 37.516 123.445C42.6613 120.18 49.2008 115.534 55.2591 114.327C60.5787 113.269 66.3798 113.443 71.7825 113.335C72.0812 113.335 72.322 113.087 72.3137 112.79C72.3054 112.492 72.0561 112.26 71.7573 112.26Z" fill="#4A2C37"/>
<path fill-rule="evenodd" clip-rule="evenodd" d="M41.881 134.068C41.9889 134.059 42.3128 134.026 42.5452 133.952C43.2921 133.729 44.1466 133.307 44.3707 133.216C46.7691 132.158 48.9684 131.059 51.1262 129.62C56.5703 125.999 60.5289 126.115 67.1349 125.826C68.7532 125.752 70.6205 125.429 72.1309 124.809C72.3633 124.71 72.9773 124.288 73.4337 124.164C73.8653 124.04 74.2221 124.148 74.4212 124.388C74.6121 124.611 74.5876 124.958 74.3552 125.148C74.1726 125.297 73.9319 125.314 73.7328 125.206C73.6581 125.231 73.5084 125.28 73.4171 125.33C73.0685 125.504 72.7037 125.743 72.5378 125.809C70.9195 126.479 68.9107 126.834 67.1763 126.909C60.8026 127.182 56.9686 127.033 51.7154 130.521C49.4995 131.993 47.2507 133.117 44.7942 134.2C44.512 134.324 43.2922 134.911 42.4208 135.093C42.1303 135.151 41.8727 135.167 41.6735 135.134C41.4412 135.101 41.267 135.01 41.1342 134.878C40.6611 134.407 40.6696 133.878 40.9352 133.382C41.2008 132.886 41.7897 132.406 42.1217 132.15C43.7234 130.926 45.5742 129.719 47.2672 128.62C48.9851 127.504 50.8108 126.471 52.6117 125.487C52.8773 125.346 53.2011 125.437 53.3504 125.702C53.4998 125.966 53.4 126.289 53.1345 126.438C51.3585 127.405 49.5577 128.422 47.8564 129.521C46.18 130.612 44.3542 131.794 42.7774 133.001C42.5699 133.158 42.2131 133.431 41.9807 133.737C41.9226 133.853 41.8312 133.96 41.881 134.068Z" fill="#4A2C37"/>
<path fill-rule="evenodd" clip-rule="evenodd" d="M51.7484 121.891C48.4122 123.652 44.9434 125.933 42.1632 128.488C40.7441 129.794 39.358 131.116 39.0758 133.109C39.0343 133.406 39.2421 133.679 39.5325 133.72C39.8313 133.762 40.1049 133.555 40.1464 133.266C40.3954 131.53 41.665 130.422 42.9016 129.29C45.6153 126.801 49.0013 124.578 52.2545 122.858C52.5201 122.718 52.6197 122.395 52.4786 122.131C52.3458 121.85 52.014 121.751 51.7484 121.891Z" fill="#4A2C37"/>
<path fill-rule="evenodd" clip-rule="evenodd" d="M50.8025 118.874C49.0016 119.734 47.4167 121.015 45.8482 122.247C43.9975 123.702 41.3748 125.338 39.5656 127.364C38.2793 128.802 37.4082 130.439 37.4082 132.324C37.4082 132.621 37.6488 132.861 37.9476 132.861C38.2463 132.861 38.4869 132.621 38.4869 132.324C38.4869 130.282 39.7317 128.604 41.2919 127.149C42.96 125.595 45.0015 124.28 46.5119 123.098C48.0141 121.916 49.533 120.676 51.2591 119.858C51.533 119.725 51.6409 119.411 51.5165 119.138C51.4003 118.857 51.0763 118.742 50.8025 118.874Z" fill="#4A2C37"/>
<path fill-rule="evenodd" clip-rule="evenodd" d="M48.2379 117.518C47.8396 117.452 47.3417 117.617 46.8355 117.956C45.9807 118.535 45.0346 119.643 44.5532 119.965C43.6819 120.544 42.7938 121.18 41.9805 121.85C41.4245 122.313 40.9266 122.767 40.4204 123.272C39.715 123.974 37.6901 125.718 36.5448 127.24C35.9722 128 35.6152 128.727 35.6152 129.273C35.6152 129.571 35.8558 129.81 36.1546 129.81C36.4533 129.81 36.6939 129.571 36.6939 129.273C36.6939 128.893 37.0011 128.413 37.3994 127.884C38.5198 126.405 40.495 124.71 41.1838 124.032C41.6652 123.553 42.1463 123.115 42.6775 122.676C43.4576 122.032 44.3128 121.42 45.1509 120.858C45.5742 120.577 46.3457 119.717 47.1009 119.097C47.3167 118.923 47.5326 118.766 47.7318 118.667C47.848 118.609 47.9475 118.56 48.0471 118.576C48.3458 118.626 48.6197 118.427 48.6695 118.13C48.7193 117.832 48.5284 117.568 48.2379 117.518Z" fill="#4A2C37"/>
<path fill-rule="evenodd" clip-rule="evenodd" d="M36.2791 123.445C35.7729 124.007 34.3621 125.842 33.9969 127.322C33.7977 128.124 33.8975 128.843 34.3871 129.331C34.5946 129.538 34.9431 129.538 35.1506 129.331C35.3581 129.116 35.3581 128.777 35.1506 128.57C35.0095 128.438 34.9765 128.248 34.9848 128.041C34.9931 127.736 35.0926 127.397 35.2337 127.05C35.715 125.867 36.7024 124.611 37.0924 124.173C37.2916 123.95 37.2752 123.611 37.0511 123.412C36.8187 123.205 36.4783 123.222 36.2791 123.445Z" fill="#4A2C37"/>
<path fill-rule="evenodd" clip-rule="evenodd" d="M51.8816 112.732C51.4584 113.253 50.7778 113.707 50.3296 114.302C50.1471 114.542 50.1968 114.881 50.4374 115.055C50.6781 115.228 51.0185 115.187 51.1928 114.947C51.6326 114.36 52.3132 113.914 52.7282 113.401C52.919 113.17 52.8775 112.831 52.6451 112.641C52.4044 112.459 52.0642 112.5 51.8816 112.732Z" fill="#4A2C37"/>
<path fill-rule="evenodd" clip-rule="evenodd" d="M34.0053 129.653C34.0551 129.405 34.271 129.207 34.5365 129.207C34.8353 129.207 35.0759 129.447 35.0759 129.753C35.0759 129.918 34.9847 130.174 34.7606 130.447C34.2627 131.042 32.9845 131.985 32.7106 132.199C30.4201 133.993 27.5402 135.365 24.6604 135.845C24.3949 135.895 24.1044 135.812 23.8139 135.663C23.6147 135.564 23.4158 135.39 23.1834 135.39C22.8846 135.39 22.644 135.151 22.644 134.853C22.644 134.555 22.8846 134.316 23.1834 134.316C23.4739 134.316 23.7643 134.423 24.0299 134.555C24.1378 134.613 24.2458 134.671 24.3537 134.721C24.4035 134.746 24.4862 134.77 24.5028 134.779C27.2 134.324 29.8891 133.034 32.0468 131.348C32.2709 131.174 33.2083 130.488 33.7561 129.943C33.8557 129.852 33.9721 129.703 34.0053 129.653Z" fill="#4A2C37"/>
<path fill-rule="evenodd" clip-rule="evenodd" d="M25.7144 135.647C25.3493 137.002 25.4988 139.11 25.4988 140.557C25.4988 140.854 25.7394 141.094 26.0382 141.094C26.337 141.094 26.5775 140.854 26.5775 140.557C26.5775 139.193 26.4115 137.201 26.7518 135.928C26.8265 135.638 26.6605 135.341 26.3701 135.266C26.0962 135.184 25.7974 135.357 25.7144 135.647Z" fill="#4A2C37"/>
<path fill-rule="evenodd" clip-rule="evenodd" d="M47.3499 140.73C47.3582 140.772 47.3665 140.813 47.3665 140.863C47.3665 141.16 47.1256 141.4 46.8268 141.4C46.7438 141.4 46.3123 141.334 46.2708 140.838C46.2459 140.466 46.3624 138.606 46.3624 138.317C46.3624 136.663 46.2794 134.993 46.379 133.348C46.3956 133.051 46.6528 132.828 46.9516 132.844C47.2504 132.861 47.4743 133.117 47.4577 133.415C47.3581 135.043 47.4411 136.688 47.4411 138.317C47.4411 138.581 47.3582 140.491 47.3499 140.73ZM47.2089 140.483C47.0927 140.35 46.9515 140.317 46.8187 140.317C46.9764 140.325 47.1093 140.383 47.2089 140.483Z" fill="#4A2C37"/>
</svg>
